<svg id="svg" version="1.1" xmlns="http://www.w3.org/2000/svg" xmlns:xlink="http://www.w3.org/1999/xlink" width="400" height="400" viewBox="0, 0, 400,400"><g id="svgg"><path id="path0" d="M148.000 0.791 C 146.790 1.191,144.720 1.794,143.400 2.132 C 113.615 9.747,82.184 26.708,58.836 47.763 C 50.832 54.981,40.016 66.349,35.396 72.400 C 34.304 73.830,32.328 76.387,31.005 78.081 C 27.686 82.334,25.402 85.556,22.857 89.576 C 21.665 91.459,20.103 93.900,19.385 95.000 C 15.371 101.151,7.915 115.879,4.752 123.905 C 4.081 125.607,3.188 127.732,2.766 128.626 C 2.345 129.521,2.000 130.471,2.000 130.738 C 2.000 131.006,1.550 132.293,1.000 133.600 L 0.000 135.976 -0.000 204.001 C -0.000 265.329,0.063 272.172,0.637 273.513 C 0.987 274.331,1.543 275.886,1.873 276.968 C 2.202 278.051,2.815 279.578,3.236 280.362 C 3.656 281.146,4.000 281.994,4.000 282.246 C 4.000 282.668,4.622 284.186,6.924 289.375 C 11.471 299.627,19.939 314.712,25.600 322.644 C 27.793 325.716,28.300 326.443,29.783 328.640 C 30.213 329.278,31.389 330.790,32.395 332.000 C 33.402 333.210,34.751 334.920,35.394 335.800 C 38.227 339.676,48.422 350.542,55.850 357.600 C 71.102 372.094,92.241 386.065,112.400 394.975 C 114.710 395.996,116.960 396.994,117.400 397.193 C 117.840 397.392,119.370 398.060,120.800 398.677 L 123.400 399.800 198.000 399.800 L 272.600 399.800 274.800 398.843 C 276.010 398.317,278.080 397.438,279.400 396.890 C 299.543 388.525,321.797 374.474,337.446 360.240 C 344.935 353.428,356.630 341.165,360.394 336.177 C 361.381 334.870,363.020 332.810,364.036 331.600 C 365.052 330.390,366.628 328.320,367.539 327.000 C 370.564 322.614,375.385 315.411,375.839 314.600 C 376.086 314.160,377.050 312.559,377.983 311.042 C 380.450 307.031,388.000 292.495,388.000 291.757 C 388.000 291.526,389.486 288.280,390.869 285.488 C 391.615 283.983,395.374 273.880,396.186 271.200 C 396.486 270.210,397.107 268.369,397.566 267.110 C 398.025 265.850,398.400 264.470,398.400 264.043 C 398.400 263.616,398.760 262.426,399.200 261.400 C 400.409 258.579,400.464 149.294,399.257 146.884 C 398.848 146.068,398.401 144.544,398.264 143.499 C 398.127 142.453,397.676 140.923,397.262 140.099 C 396.847 139.274,396.379 137.888,396.221 137.019 C 396.063 136.149,395.588 134.761,395.167 133.935 C 394.745 133.108,394.400 132.100,394.400 131.694 C 394.400 131.289,393.968 130.067,393.441 128.979 C 392.913 127.890,392.255 126.280,391.979 125.400 C 391.703 124.520,391.177 123.170,390.809 122.400 C 390.442 121.630,389.705 120.020,389.171 118.823 C 386.949 113.840,380.300 101.048,377.474 96.319 C 372.969 88.781,370.806 85.589,365.276 78.318 C 363.888 76.493,361.937 73.920,360.941 72.600 C 359.945 71.280,358.474 69.488,357.672 68.617 C 356.871 67.747,355.516 66.217,354.662 65.217 C 352.721 62.945,344.667 54.721,340.738 51.000 C 325.825 36.875,307.715 24.522,288.276 15.218 C 278.843 10.702,264.546 5.181,258.800 3.835 C 257.590 3.551,255.952 3.043,255.159 2.705 C 254.367 2.367,252.927 1.967,251.959 1.816 C 250.992 1.666,249.164 1.195,247.898 0.771 C 244.423 -0.393,151.525 -0.375,148.000 0.791 M220.000 20.375 C 357.563 38.281,428.076 191.419,351.794 306.600 C 329.816 339.785,295.735 366.160,258.512 378.791 C 250.928 381.365,248.996 381.192,245.290 377.608 L 243.981 376.341 242.290 376.946 C 241.361 377.279,239.700 377.662,238.600 377.797 C 237.500 377.931,235.520 378.376,234.200 378.786 C 232.880 379.195,230.450 379.640,228.800 379.774 C 227.150 379.909,224.450 380.412,222.800 380.893 C 218.158 382.244,178.275 382.249,173.600 380.900 C 171.950 380.423,169.160 379.921,167.400 379.783 C 165.640 379.645,163.120 379.192,161.800 378.777 C 158.186 377.640,156.162 377.401,155.901 378.080 C 155.279 379.703,151.156 381.801,148.651 381.769 C 142.318 381.689,119.124 372.115,104.600 363.587 C 15.821 311.456,-13.475 196.453,39.669 108.699 C 71.109 56.785,121.506 25.835,185.000 19.450 C 190.156 18.932,213.690 19.554,220.000 20.375 " stroke="none" fill="#f9f9f9" fill-rule="evenodd"></path><path id="path1" d="M190.800 21.844 C 181.436 22.508,173.146 23.345,169.600 23.984 C 167.290 24.400,164.590 24.861,163.600 25.008 C 130.674 29.904,90.011 52.398,64.915 79.600 C 41.461 105.022,23.322 140.583,19.008 169.600 C 18.861 170.590,18.400 173.290,17.984 175.600 C 15.869 187.334,15.257 206.717,16.548 221.000 C 17.880 235.721,21.226 251.053,26.032 264.454 C 45.252 318.046,86.516 358.704,140.157 376.902 C 147.528 379.402,151.118 380.000,152.447 378.948 C 152.751 378.707,153.502 378.390,154.116 378.243 C 154.730 378.097,155.126 377.804,154.996 377.593 C 154.862 377.377,155.037 377.316,155.393 377.453 C 155.968 377.673,156.017 376.284,155.914 362.948 C 155.749 341.627,156.755 342.725,138.508 343.941 C 129.545 344.539,116.599 343.948,113.022 342.778 C 111.715 342.350,110.305 342.000,109.889 342.000 C 103.271 342.000,90.955 331.318,87.982 323.000 C 86.532 318.941,81.871 309.722,79.880 306.972 C 79.094 305.888,77.616 303.781,76.595 302.292 C 74.287 298.925,69.400 294.025,66.891 292.563 C 64.295 291.050,61.634 289.074,61.616 288.644 C 61.592 288.098,66.001 288.627,67.800 289.386 C 77.395 293.435,82.562 297.715,88.397 306.444 C 93.275 313.742,93.988 314.692,96.975 317.866 C 101.395 322.564,107.912 326.621,115.000 329.087 C 119.044 330.494,134.997 330.756,138.352 329.470 C 139.316 329.101,141.236 328.618,142.620 328.397 C 151.062 327.048,155.635 323.687,156.375 318.287 C 157.233 312.022,161.184 303.545,164.824 300.156 C 170.429 294.937,168.574 288.331,161.344 287.763 C 159.835 287.644,157.250 287.214,155.600 286.807 C 153.950 286.399,151.340 285.951,149.800 285.810 C 148.260 285.670,145.920 285.217,144.600 284.805 C 143.280 284.392,141.390 283.938,140.400 283.795 C 134.804 282.990,115.513 274.718,110.695 271.058 C 109.763 270.350,107.797 268.916,106.328 267.870 C 103.021 265.518,96.410 258.950,94.379 256.000 C 91.489 251.801,88.484 246.584,87.238 243.600 C 86.548 241.950,85.660 239.880,85.263 239.000 C 84.147 236.526,82.788 232.409,82.357 230.200 C 82.143 229.100,81.629 227.300,81.217 226.200 C 80.804 225.100,80.371 223.030,80.253 221.600 C 80.136 220.170,79.691 217.914,79.264 216.586 C 77.658 211.589,77.745 182.313,79.379 178.008 C 79.753 177.022,80.164 175.312,80.293 174.208 C 80.421 173.104,80.753 171.840,81.030 171.400 C 81.308 170.960,81.744 169.790,81.999 168.800 C 83.421 163.288,89.713 152.477,94.597 147.154 C 98.086 143.351,99.009 139.209,97.037 136.200 C 96.686 135.665,96.400 134.939,96.400 134.585 C 96.400 134.231,95.936 132.559,95.368 130.871 C 93.937 126.613,93.770 107.888,95.136 104.800 C 95.574 103.810,96.060 101.920,96.216 100.600 C 96.372 99.280,96.699 97.840,96.941 97.400 C 97.184 96.960,97.662 95.700,98.004 94.600 L 98.625 92.600 100.801 92.476 C 102.195 92.397,103.845 92.637,105.389 93.144 C 106.715 93.579,108.430 94.055,109.200 94.202 C 112.303 94.793,122.028 98.832,130.563 103.076 C 135.655 105.607,139.552 107.841,143.329 110.393 C 147.642 113.306,153.043 113.563,160.600 111.213 C 161.920 110.802,164.170 110.350,165.600 110.208 C 167.030 110.066,169.370 109.615,170.800 109.205 C 172.394 108.749,175.360 108.376,178.469 108.241 C 181.257 108.119,184.947 107.701,186.669 107.312 C 191.184 106.292,208.781 106.283,213.268 107.299 C 214.955 107.681,218.735 108.101,221.668 108.232 C 225.148 108.388,227.833 108.730,229.400 109.219 C 230.720 109.630,232.970 110.079,234.400 110.217 C 235.830 110.354,238.080 110.806,239.400 111.220 C 247.357 113.718,252.641 113.287,257.889 109.710 C 261.197 107.457,272.921 101.050,276.427 99.581 C 278.062 98.895,280.175 97.968,281.122 97.521 C 283.466 96.413,287.775 94.849,290.200 94.224 C 291.300 93.941,293.061 93.415,294.114 93.055 C 298.168 91.668,301.458 92.214,301.843 94.339 C 301.989 95.142,302.422 96.430,302.807 97.200 C 303.191 97.970,303.639 99.590,303.802 100.800 C 303.966 102.010,304.458 104.080,304.895 105.400 C 307.099 112.059,305.949 129.040,302.762 136.874 C 301.258 140.572,301.947 143.121,305.552 147.202 C 311.866 154.347,318.085 166.285,319.810 174.568 C 320.127 176.091,320.704 178.161,321.093 179.168 C 322.258 182.188,322.101 212.670,320.900 216.447 C 320.438 217.902,319.928 220.421,319.768 222.045 C 319.608 223.668,319.232 225.584,318.932 226.302 C 318.632 227.020,318.129 228.731,317.815 230.104 C 316.878 234.201,312.809 244.689,311.183 247.200 C 310.969 247.530,310.578 248.250,310.313 248.800 C 304.537 260.811,287.410 274.430,270.600 280.380 C 265.364 282.234,260.876 283.569,258.403 284.008 C 256.974 284.263,255.256 284.700,254.585 284.981 C 253.913 285.261,251.946 285.624,250.213 285.786 C 248.479 285.948,246.147 286.341,245.030 286.658 C 243.914 286.975,241.403 287.402,239.452 287.608 C 235.359 288.040,233.703 288.827,232.701 290.814 C 231.338 293.515,232.307 297.934,234.590 299.430 C 236.759 300.851,241.260 308.361,241.851 311.544 C 241.999 312.345,242.440 313.748,242.830 314.663 C 243.919 317.215,244.399 329.246,244.405 354.122 L 244.409 375.800 246.776 377.100 C 249.793 378.757,250.500 378.735,256.336 376.805 C 309.758 359.137,353.755 314.840,371.189 261.168 C 373.602 253.739,376.392 243.174,376.989 239.200 C 377.138 238.210,377.606 235.510,378.029 233.200 C 380.827 217.933,380.908 189.294,378.192 175.800 C 377.882 174.260,377.431 171.740,377.191 170.200 C 370.124 124.996,338.675 78.169,297.200 51.096 C 266.491 31.050,224.351 19.465,190.800 21.844 " stroke="none" fill="#040404" fill-rule="evenodd"></path><path id="path2" d="M185.000 19.450 C 161.559 21.808,144.150 26.018,126.295 33.647 C 33.644 73.237,-10.580 177.936,25.841 271.466 C 45.783 322.677,88.497 362.810,141.600 380.229 C 148.649 382.541,153.656 381.870,155.851 378.317 C 156.373 377.473,155.627 377.667,154.103 378.771 C 150.569 381.332,148.716 381.230,139.044 377.949 C 42.370 345.149,-9.539 237.934,25.046 142.492 C 71.130 15.317,232.285 -20.962,327.623 74.377 C 416.746 163.500,392.050 313.038,279.000 368.794 C 260.292 378.021,250.081 380.947,246.916 377.990 C 246.216 377.335,245.469 376.800,245.255 376.800 C 245.041 376.800,244.776 376.575,244.665 376.300 C 244.509 375.913,244.456 375.917,244.432 376.319 C 244.355 377.582,249.491 380.789,251.600 380.795 C 253.079 380.799,263.597 377.139,270.112 374.353 C 319.025 353.443,356.742 312.642,373.418 262.600 C 408.793 156.441,342.568 43.471,232.600 22.384 C 219.494 19.871,195.513 18.393,185.000 19.450 " stroke="none" fill="#848484" fill-rule="evenodd"></path><path id="path3" d="M187.400 20.670 C 138.047 24.855,98.749 42.904,66.400 76.243 C -23.494 168.888,7.826 322.908,126.800 373.274 C 143.605 380.388,150.291 381.803,153.789 378.986 C 154.933 378.064,154.940 378.038,153.989 378.272 C 153.445 378.406,152.751 378.712,152.447 378.951 C 151.115 379.999,147.524 379.401,140.157 376.902 C 102.698 364.193,70.827 340.289,48.396 308.078 C 30.399 282.234,19.356 252.040,16.548 221.000 C 15.257 206.717,15.869 187.334,17.984 175.600 C 18.400 173.290,18.861 170.590,19.008 169.600 C 23.322 140.583,41.461 105.022,64.915 79.600 C 90.011 52.398,130.674 29.904,163.600 25.008 C 164.590 24.861,167.290 24.400,169.600 23.984 C 227.608 13.531,293.925 37.120,333.728 82.364 C 356.186 107.892,372.653 141.170,377.191 170.200 C 377.431 171.740,377.882 174.260,378.192 175.800 C 380.908 189.294,380.827 217.933,378.029 233.200 C 377.606 235.510,377.138 238.210,376.989 239.200 C 376.392 243.174,373.602 253.739,371.189 261.168 C 353.755 314.840,309.758 359.137,256.336 376.805 C 250.538 378.723,249.717 378.755,246.949 377.171 C 245.767 376.494,244.800 376.134,244.800 376.371 C 244.800 376.607,244.990 376.800,245.222 376.800 C 245.454 376.800,246.216 377.335,246.916 377.990 C 249.576 380.475,252.222 380.033,265.200 374.937 C 346.396 343.051,394.237 257.502,378.803 171.793 C 362.992 83.993,285.911 19.764,197.200 20.469 C 192.690 20.505,188.280 20.596,187.400 20.670 " stroke="none" fill="#7c7c7c" fill-rule="evenodd"></path></g></svg>