<svg id="svg" version="1.1" xmlns="http://www.w3.org/2000/svg" xmlns:xlink="http://www.w3.org/1999/xlink" width="400" height="400" viewBox="0, 0, 400,400"><g id="svgg"><path id="path0" d="M306.227 75.230 C 307.078 76.170,307.156 76.180,307.031 75.333 C 306.978 74.967,306.618 74.620,306.232 74.564 C 305.565 74.466,305.565 74.499,306.227 75.230 M251.797 130.768 C 252.047 131.192,251.963 131.271,251.466 131.081 C 250.508 130.713,250.646 131.007,251.779 131.750 C 253.031 132.570,253.456 131.948,252.322 130.953 C 251.849 130.539,251.613 130.456,251.797 130.768 M96.532 282.666 C 96.846 282.979,94.985 286.288,93.212 288.571 C 92.345 289.687,80.628 301.580,67.175 315.000 C 53.722 328.420,42.355 339.940,41.915 340.600 C 41.475 341.260,41.212 341.503,41.330 341.139 C 41.531 340.521,40.746 340.321,40.212 340.855 C 39.185 341.882,59.009 353.675,67.000 356.791 C 68.760 357.477,70.740 358.278,71.400 358.571 C 73.453 359.482,77.563 360.714,83.800 362.287 L 89.800 363.800 146.100 363.917 C 184.956 363.997,202.400 363.904,202.400 363.617 C 202.400 363.388,201.781 363.200,201.024 363.200 C 199.748 363.200,198.963 362.771,199.413 362.320 C 199.768 361.965,199.806 288.000,199.451 288.000 C 199.259 288.000,199.303 287.758,199.548 287.463 C 200.753 286.011,199.219 285.963,152.442 286.005 C 107.545 286.044,106.973 286.035,104.710 285.222 C 103.450 284.770,102.100 284.396,101.710 284.391 C 101.319 284.385,99.948 283.949,98.663 283.420 C 97.378 282.892,96.419 282.552,96.532 282.666 " stroke="none" fill="#33ab53" fill-rule="evenodd"></path><path id="path1" d="M187.100 35.482 C 187.595 35.578,188.405 35.578,188.900 35.482 C 189.395 35.387,188.990 35.309,188.000 35.309 C 187.010 35.309,186.605 35.387,187.100 35.482 M212.305 35.483 C 212.802 35.579,213.522 35.575,213.905 35.475 C 214.287 35.375,213.880 35.296,213.000 35.301 C 212.120 35.305,211.807 35.387,212.305 35.483 M144.400 134.886 C 144.400 135.132,144.291 135.225,144.159 135.092 C 144.026 134.960,143.477 135.019,142.938 135.223 C 142.400 135.428,141.383 135.696,140.679 135.819 C 139.976 135.941,138.446 136.318,137.279 136.655 C 135.317 137.223,134.711 137.206,129.174 136.435 C 104.863 133.050,80.229 137.442,59.511 148.855 C 48.648 154.839,49.344 154.544,47.376 153.993 C 46.399 153.720,45.600 153.339,45.600 153.148 C 45.600 152.957,45.375 152.845,45.100 152.900 C 44.825 152.955,44.643 152.780,44.696 152.512 C 44.834 151.809,38.799 156.399,34.702 160.112 C 32.778 161.856,31.321 163.472,31.464 163.703 C 31.608 163.936,31.534 164.006,31.298 163.860 C 30.881 163.603,21.200 173.454,21.200 174.135 C 21.200 174.325,20.118 175.826,18.795 177.470 C 17.443 179.151,16.508 180.666,16.659 180.930 C 16.807 181.189,16.787 181.273,16.615 181.118 C 16.033 180.593,9.724 190.791,10.284 191.350 C 10.421 191.488,10.323 191.600,10.067 191.600 C 9.475 191.600,6.348 197.992,6.678 198.526 C 6.813 198.745,6.734 198.806,6.501 198.663 C 6.244 198.503,5.273 200.466,4.010 203.701 C 2.872 206.615,1.549 209.900,1.070 211.000 C -0.643 214.938,-0.406 283.861,1.328 285.700 C 1.588 285.975,1.856 286.602,1.924 287.093 C 2.240 289.368,9.835 306.149,10.393 305.804 C 10.544 305.711,10.667 305.875,10.667 306.168 C 10.667 306.680,14.685 313.312,16.503 315.800 C 20.504 321.278,21.385 322.335,21.766 322.119 C 22.005 321.983,22.073 322.013,21.917 322.185 C 21.006 323.196,35.653 338.509,36.833 337.779 C 37.046 337.648,37.170 337.740,37.110 337.984 C 37.049 338.227,37.893 339.096,38.985 339.913 C 40.076 340.731,40.849 341.205,40.702 340.967 C 40.555 340.728,40.680 340.533,40.979 340.533 C 41.295 340.533,41.438 340.799,41.319 341.167 C 41.207 341.515,41.475 341.260,41.915 340.600 C 42.355 339.940,53.636 328.510,66.984 315.200 C 90.421 291.830,94.143 287.888,95.747 284.730 C 96.267 283.706,96.691 283.324,97.147 283.469 C 97.506 283.583,97.017 283.210,96.061 282.639 C 95.104 282.068,94.131 281.719,93.899 281.863 C 93.666 282.006,93.586 281.945,93.721 281.728 C 93.980 281.309,91.282 279.782,90.600 279.961 C 90.380 280.019,90.326 279.941,90.480 279.786 C 90.634 279.632,89.734 278.740,88.480 277.804 C 78.830 270.600,72.019 254.168,74.385 243.800 C 74.585 242.920,74.803 241.090,74.867 239.734 C 74.932 238.377,75.104 237.341,75.250 237.431 C 75.593 237.643,76.091 235.671,75.810 235.216 C 75.692 235.025,75.731 234.808,75.898 234.734 C 76.064 234.660,77.010 232.980,78.000 231.000 C 82.267 222.466,94.289 211.600,99.464 211.600 C 99.803 211.600,99.928 211.407,99.762 211.138 C 99.587 210.856,99.652 210.785,99.929 210.956 C 100.177 211.110,102.230 210.750,104.490 210.156 C 118.276 206.535,134.306 212.593,143.558 224.921 C 144.681 226.418,145.600 227.770,145.600 227.927 C 145.600 228.083,146.245 229.169,147.034 230.340 C 149.130 233.453,152.110 234.400,155.435 233.011 C 157.125 232.305,166.486 223.263,166.128 222.683 C 165.989 222.459,166.054 222.386,166.271 222.520 C 166.791 222.841,170.511 219.054,170.110 218.612 C 169.939 218.425,169.993 218.382,170.229 218.516 C 170.770 218.823,176.936 212.670,176.512 212.246 C 176.340 212.074,176.470 211.993,176.800 212.067 C 177.164 212.147,177.347 211.964,177.267 211.600 C 177.193 211.270,177.273 211.140,177.445 211.311 C 177.829 211.695,182.844 206.794,182.551 206.321 C 182.435 206.133,182.579 206.030,182.870 206.090 C 183.162 206.151,183.351 205.962,183.290 205.670 C 183.230 205.379,183.333 205.235,183.519 205.350 C 183.992 205.642,190.896 198.630,190.513 198.246 C 190.341 198.074,190.470 197.993,190.800 198.067 C 191.132 198.140,191.351 197.964,191.290 197.670 C 191.230 197.379,191.341 197.240,191.537 197.361 C 192.020 197.659,193.280 196.221,192.901 195.803 C 192.735 195.621,192.797 195.584,193.039 195.722 C 193.455 195.958,195.609 194.056,195.739 193.337 C 195.773 193.152,195.906 193.035,196.036 193.079 C 196.166 193.122,197.156 192.231,198.236 191.100 C 199.316 189.968,199.840 189.303,199.400 189.621 C 198.662 190.155,198.643 190.146,199.145 189.504 C 199.445 189.122,199.826 188.893,199.992 188.995 C 200.158 189.097,200.615 188.825,201.009 188.391 C 201.402 187.956,201.570 187.600,201.382 187.600 C 201.194 187.600,201.265 187.375,201.540 187.100 C 201.815 186.825,202.245 186.600,202.496 186.600 C 203.229 186.600,206.474 182.370,206.230 181.733 C 206.107 181.414,206.185 181.267,206.405 181.403 C 207.247 181.923,206.830 177.454,205.898 175.968 C 203.702 172.468,197.658 165.517,197.107 165.858 C 196.870 166.004,196.786 165.947,196.919 165.731 C 198.635 162.954,160.557 137.573,157.505 139.459 C 157.269 139.604,157.186 139.546,157.320 139.329 C 157.455 139.112,156.362 138.519,154.882 138.006 C 153.407 137.496,152.004 136.927,151.765 136.744 C 151.526 136.560,150.688 136.363,149.904 136.305 C 149.120 136.247,148.561 136.065,148.663 135.900 C 148.764 135.735,148.702 135.598,148.524 135.596 C 148.346 135.593,147.345 135.332,146.300 135.015 C 144.976 134.613,144.400 134.574,144.400 134.886 " stroke="none" fill="#fbbc04" fill-rule="evenodd"></path><path id="path2" d="M182.400 35.036 C 181.850 35.122,179.780 35.462,177.800 35.790 C 175.820 36.119,172.400 36.671,170.200 37.018 C 163.762 38.033,162.864 38.232,155.800 40.206 C 151.037 41.538,144.070 43.837,141.800 44.827 C 141.360 45.019,138.980 45.987,136.510 46.979 C 124.571 51.775,107.349 61.956,98.600 69.390 C 97.280 70.512,95.030 72.356,93.600 73.488 C 90.276 76.119,78.605 87.918,76.476 90.800 C 75.582 92.010,73.894 94.192,72.725 95.649 C 69.081 100.190,62.800 109.171,62.800 109.839 C 62.800 109.957,62.366 110.626,61.836 111.327 C 60.392 113.234,53.200 126.644,53.200 127.429 C 53.200 127.548,52.651 128.751,51.981 130.102 C 50.188 133.715,46.526 143.356,45.182 148.000 C 44.895 148.990,44.512 149.971,44.330 150.180 C 44.149 150.389,44.000 150.915,44.000 151.349 C 44.000 151.782,43.685 152.497,43.300 152.937 C 42.807 153.501,42.777 153.632,43.200 153.381 C 43.942 152.939,45.600 152.821,45.600 153.210 C 45.600 153.367,46.399 153.720,47.376 153.993 C 49.344 154.544,48.648 154.839,59.511 148.855 C 80.229 137.442,104.863 133.050,129.174 136.435 C 134.711 137.206,135.317 137.223,137.279 136.655 C 138.446 136.318,139.976 135.941,140.679 135.819 C 141.383 135.696,142.400 135.428,142.938 135.223 C 143.477 135.019,144.026 134.960,144.159 135.092 C 144.291 135.225,144.400 135.136,144.400 134.895 C 144.400 134.592,144.794 134.569,145.674 134.821 C 146.374 135.022,147.034 135.099,147.140 134.993 C 147.246 134.887,147.123 134.800,146.867 134.800 C 144.103 134.800,154.417 126.800,162.400 122.752 C 167.913 119.956,174.678 117.288,178.000 116.598 C 178.770 116.438,179.580 116.173,179.800 116.008 C 180.020 115.844,181.210 115.596,182.444 115.458 C 183.678 115.319,185.357 114.927,186.175 114.585 C 188.215 113.732,212.376 113.706,214.468 114.554 C 215.200 114.851,216.851 115.212,218.134 115.355 C 219.418 115.498,220.948 115.861,221.534 116.162 C 222.121 116.463,223.632 116.921,224.893 117.181 C 226.154 117.441,227.290 117.822,227.417 118.027 C 227.543 118.232,227.952 118.401,228.324 118.402 C 228.696 118.404,229.450 118.637,230.000 118.921 C 230.550 119.205,232.080 119.865,233.400 120.389 C 237.535 122.030,245.717 126.815,248.948 129.482 C 250.508 130.770,252.799 131.963,252.105 131.127 C 251.696 130.634,251.776 130.441,252.561 130.021 C 253.084 129.741,253.727 129.110,253.990 128.618 C 254.254 128.126,265.478 116.666,278.934 103.151 C 306.386 75.580,306.166 75.811,305.816 74.898 C 305.613 74.369,305.738 74.392,306.476 75.022 C 307.381 75.795,307.383 75.795,306.815 75.000 C 305.863 73.664,301.513 69.624,299.600 68.297 C 298.610 67.611,296.990 66.383,296.000 65.568 C 294.257 64.133,283.457 56.800,283.087 56.800 C 282.986 56.800,280.906 55.639,278.465 54.220 C 269.298 48.892,257.112 43.768,245.800 40.483 C 238.649 38.407,235.397 37.711,227.600 36.587 C 225.290 36.254,222.770 35.776,222.000 35.524 C 220.665 35.088,184.872 34.646,182.400 35.036 M188.900 35.482 C 188.405 35.578,187.595 35.578,187.100 35.482 C 186.605 35.387,187.010 35.309,188.000 35.309 C 188.990 35.309,189.395 35.387,188.900 35.482 M213.905 35.475 C 213.522 35.575,212.802 35.579,212.305 35.483 C 211.807 35.387,212.120 35.305,213.000 35.301 C 213.880 35.296,214.287 35.375,213.905 35.475 M151.600 136.631 C 151.600 136.901,153.678 137.656,153.876 137.457 C 153.967 137.367,153.492 137.101,152.820 136.867 C 152.149 136.633,151.600 136.527,151.600 136.631 M35.978 158.700 L 34.600 160.200 36.100 158.822 C 37.496 157.538,37.784 157.200,37.478 157.200 C 37.412 157.200,36.737 157.875,35.978 158.700 M196.200 164.400 C 197.950 166.160,199.471 167.600,199.581 167.600 C 199.691 167.600,198.350 166.160,196.600 164.400 C 194.850 162.640,193.329 161.200,193.219 161.200 C 193.109 161.200,194.450 162.640,196.200 164.400 M200.000 168.525 C 200.000 168.594,200.585 169.179,201.300 169.825 L 202.600 171.000 201.425 169.700 C 200.330 168.488,200.000 168.216,200.000 168.525 M206.893 179.200 C 206.893 179.970,206.975 180.285,207.076 179.900 C 207.176 179.515,207.176 178.885,207.076 178.500 C 206.975 178.115,206.893 178.430,206.893 179.200 M188.598 200.900 L 172.600 217.000 188.700 201.002 C 203.664 186.133,204.980 184.800,204.698 184.800 C 204.642 184.800,197.397 192.045,188.598 200.900 M2.465 206.617 C 1.795 208.088,1.923 208.402,2.647 207.065 C 2.986 206.440,3.188 205.854,3.096 205.763 C 3.005 205.671,2.721 206.056,2.465 206.617 M111.507 209.090 C 112.226 209.179,113.306 209.177,113.907 209.086 C 114.508 208.995,113.920 208.922,112.600 208.924 C 111.280 208.926,110.788 209.001,111.507 209.090 M168.991 220.500 L 165.800 223.800 169.100 220.609 C 172.165 217.646,172.582 217.200,172.291 217.200 C 172.230 217.200,170.745 218.685,168.991 220.500 M139.981 221.000 C 142.874 224.217,143.067 224.399,142.098 223.000 C 141.641 222.340,140.492 221.080,139.545 220.200 C 138.085 218.843,138.151 218.965,139.981 221.000 M85.168 220.700 C 83.306 222.703,82.238 224.000,82.449 224.000 C 82.544 224.000,83.573 222.920,84.735 221.600 C 87.069 218.948,87.362 218.340,85.168 220.700 M161.792 227.700 L 158.200 231.400 161.900 227.808 C 165.336 224.472,165.782 224.000,165.492 224.000 C 165.432 224.000,163.767 225.665,161.792 227.700 M74.137 247.800 C 74.139 249.560,74.209 250.230,74.293 249.289 C 74.378 248.349,74.377 246.909,74.291 246.089 C 74.205 245.270,74.136 246.040,74.137 247.800 M82.266 271.495 C 82.651 272.207,84.049 273.827,85.371 275.095 L 87.776 277.400 85.381 274.800 C 84.063 273.370,82.666 271.750,82.275 271.200 C 81.592 270.237,81.591 270.248,82.266 271.495 M88.000 277.346 C 88.000 277.456,88.540 277.930,89.200 278.400 C 89.860 278.870,90.400 279.164,90.400 279.054 C 90.400 278.944,89.860 278.470,89.200 278.000 C 88.540 277.530,88.000 277.236,88.000 277.346 M22.400 324.000 C 22.870 324.660,23.344 325.200,23.454 325.200 C 23.564 325.200,23.270 324.660,22.800 324.000 C 22.330 323.340,21.856 322.800,21.746 322.800 C 21.636 322.800,21.930 323.340,22.400 324.000 M24.610 326.763 C 25.887 328.320,27.200 329.587,27.200 329.263 C 27.200 329.098,26.440 328.251,25.510 327.381 C 24.581 326.512,24.176 326.233,24.610 326.763 M33.200 335.325 C 33.200 335.394,33.785 335.979,34.500 336.625 L 35.800 337.800 34.625 336.500 C 33.530 335.288,33.200 335.016,33.200 335.325 " stroke="none" fill="#ec4433" fill-rule="evenodd"></path><path id="path3" d="M304.800 76.942 C 304.030 77.854,292.391 89.653,278.935 103.162 C 265.479 116.671,254.236 128.160,253.950 128.693 C 253.665 129.226,253.095 129.842,252.683 130.063 C 251.956 130.452,251.955 130.489,252.667 131.301 C 253.161 131.865,253.205 132.029,252.800 131.804 C 252.470 131.621,252.636 131.950,253.170 132.535 C 254.163 133.626,255.075 133.997,254.559 133.100 C 254.392 132.810,254.424 132.740,254.636 132.933 C 254.836 133.117,255.000 133.407,255.000 133.578 C 255.000 133.749,256.493 135.463,258.318 137.386 C 260.142 139.309,261.937 141.358,262.306 141.941 C 262.675 142.523,263.798 143.990,264.802 145.200 C 268.040 149.101,271.600 155.043,274.151 160.802 C 274.783 162.231,275.573 163.919,275.905 164.553 C 276.237 165.188,276.645 166.268,276.812 166.953 C 276.979 167.639,277.394 169.010,277.734 170.000 C 278.074 170.990,278.660 172.919,279.036 174.287 C 279.411 175.655,279.827 176.706,279.959 176.624 C 280.092 176.542,280.138 177.448,280.063 178.639 C 279.974 180.043,280.177 181.470,280.641 182.701 C 281.235 184.278,281.394 186.365,281.578 195.000 C 281.875 208.895,282.531 209.811,292.800 210.661 C 295.716 210.902,302.308 213.052,305.138 214.685 C 306.850 215.674,308.928 217.212,312.937 220.461 C 315.178 222.278,319.186 227.725,320.783 231.126 C 321.229 232.075,321.773 232.740,321.992 232.605 C 322.214 232.468,322.295 232.608,322.175 232.921 C 322.056 233.230,322.328 234.455,322.779 235.642 C 323.230 236.829,323.601 238.340,323.603 239.000 C 323.605 239.660,323.963 241.370,324.400 242.800 C 325.425 246.156,325.429 249.993,324.410 253.038 C 323.975 254.337,323.615 256.082,323.610 256.916 C 323.604 257.750,323.266 259.100,322.857 259.916 C 322.448 260.732,322.004 261.850,321.871 262.400 C 321.737 262.950,320.717 264.985,319.604 266.922 C 318.491 268.859,317.702 270.642,317.852 270.884 C 318.001 271.126,317.953 271.218,317.745 271.090 C 317.537 270.961,315.676 272.556,313.609 274.633 C 308.255 280.015,303.246 282.959,296.200 284.867 C 294.660 285.284,292.770 285.795,292.000 286.003 C 291.164 286.229,272.164 286.397,244.800 286.422 C 219.610 286.445,199.233 286.556,199.517 286.670 C 199.913 286.830,199.925 287.008,199.568 287.439 C 199.312 287.748,199.259 288.000,199.451 288.000 C 199.806 288.000,199.768 361.804,199.413 362.379 C 199.087 362.907,199.677 363.200,201.067 363.200 C 201.800 363.200,202.400 363.380,202.400 363.600 C 202.400 363.865,219.800 364.000,253.800 364.000 C 282.070 364.000,305.200 363.859,305.200 363.687 C 305.200 363.515,306.415 363.441,307.900 363.523 C 311.071 363.698,319.516 361.800,327.400 359.142 C 336.190 356.178,356.062 345.539,355.690 343.996 C 355.630 343.746,355.773 343.659,356.008 343.805 C 356.568 344.151,357.666 343.231,357.334 342.693 C 357.187 342.456,357.269 342.395,357.523 342.552 C 358.372 343.077,364.230 338.224,371.432 331.027 C 378.726 323.738,379.864 322.358,385.463 314.000 C 390.808 306.021,395.020 298.349,394.622 297.314 C 394.505 297.008,394.557 296.850,394.738 296.962 C 395.206 297.251,396.925 292.927,396.571 292.352 C 396.400 292.077,396.446 291.981,396.680 292.126 C 397.161 292.423,397.757 291.203,399.043 287.288 L 400.000 284.375 400.000 247.892 L 400.000 211.410 397.757 205.708 C 396.523 202.572,395.355 200.104,395.162 200.224 C 394.968 200.344,394.910 200.178,395.034 199.855 C 395.654 198.239,384.520 179.598,379.784 174.325 C 379.130 173.596,377.217 171.380,375.534 169.400 C 371.091 164.173,364.267 157.932,358.104 153.459 C 356.952 152.623,355.704 151.422,355.331 150.791 C 354.958 150.160,354.523 149.724,354.364 149.822 C 354.205 149.921,354.168 149.646,354.281 149.211 C 354.490 148.414,353.867 146.212,352.185 141.800 C 351.682 140.480,350.955 138.500,350.570 137.400 C 350.184 136.300,349.207 133.960,348.398 132.200 C 347.589 130.440,346.698 128.417,346.417 127.705 C 346.137 126.993,345.750 126.507,345.558 126.626 C 345.366 126.744,345.310 126.578,345.434 126.257 C 345.719 125.513,344.492 123.096,343.988 123.408 C 343.779 123.536,343.710 123.379,343.833 123.057 C 343.957 122.736,343.234 121.023,342.229 119.251 C 341.223 117.478,340.400 115.935,340.400 115.822 C 340.400 115.626,339.283 113.805,336.094 108.800 C 333.176 104.221,330.609 100.532,328.995 98.600 C 328.076 97.500,327.101 96.179,326.829 95.665 C 325.997 94.093,323.538 91.591,323.095 91.865 C 322.848 92.017,322.796 91.930,322.967 91.654 C 323.145 91.365,321.280 89.069,318.129 85.699 C 311.980 79.125,307.489 74.932,307.277 75.569 C 307.178 75.867,306.957 75.899,306.661 75.659 C 306.346 75.403,305.756 75.810,304.800 76.942 " stroke="none" fill="#4484f4" fill-rule="evenodd"></path></g></svg>