<svg id="svg" version="1.1" xmlns="http://www.w3.org/2000/svg" xmlns:xlink="http://www.w3.org/1999/xlink" width="400" height="400" viewBox="0, 0, 400,400"><g id="svgg"><path id="path0" d="M208.496 94.591 L 208.600 189.182 209.709 190.291 L 210.818 191.400 305.409 191.502 L 400.000 191.605 400.000 96.282 C 400.000 22.676,399.891 0.851,399.520 0.480 C 399.149 0.109,377.324 -0.000,303.716 -0.000 L 208.392 0.000 208.496 94.591 " stroke="none" fill="#4cac54" fill-rule="evenodd"></path><path id="path1" d="M0.480 0.480 C -0.152 1.112,-0.138 1.730,0.500 1.347 C 0.898 1.108,0.897 1.173,0.498 1.666 C 0.099 2.159,-0.002 21.643,0.002 96.945 L 0.007 191.605 94.594 191.502 L 189.182 191.400 190.291 190.291 L 191.400 189.182 191.502 94.591 L 191.605 0.000 96.882 0.000 C 21.658 0.000,2.049 0.103,1.621 0.500 C 1.190 0.900,1.139 0.900,1.365 0.500 C 1.725 -0.137,1.111 -0.151,0.480 0.480 " stroke="none" fill="#f44434" fill-rule="evenodd"></path><path id="path2" d="M211.817 208.692 C 208.136 209.627,208.405 201.925,208.402 306.500 L 208.400 400.000 303.720 400.000 C 377.324 400.000,399.149 399.891,399.520 399.520 C 399.891 399.149,400.000 377.324,400.000 303.720 L 400.000 208.400 306.300 208.446 C 254.765 208.472,212.248 208.582,211.817 208.692 " stroke="none" fill="#fcc404" fill-rule="evenodd"></path><path id="path3" d="M-0.000 303.720 C -0.000 377.324,0.109 399.149,0.480 399.520 C 0.851 399.891,22.676 400.000,96.280 400.000 L 191.600 400.000 191.600 305.980 C 191.600 221.417,191.537 211.838,190.973 210.749 C 189.673 208.234,196.553 208.400,93.813 208.400 L 0.000 208.400 -0.000 303.720 " stroke="none" fill="#2494f4" fill-rule="evenodd"></path></g></svg>