<svg id="svg" version="1.1" xmlns="http://www.w3.org/2000/svg" xmlns:xlink="http://www.w3.org/1999/xlink" width="400" height="382.1656050955414" viewBox="0, 0, 400,382.1656050955414"><g id="svgg"><path id="path0" d="M144.168 0.762 C 137.870 2.283,137.402 2.524,142.256 1.747 C 142.992 1.629,141.960 1.974,139.962 2.513 C 137.964 3.051,136.271 3.654,136.201 3.852 C 136.130 4.049,135.921 4.118,135.736 4.003 C 135.063 3.587,121.269 8.083,114.586 10.896 C 113.774 11.238,113.045 11.452,112.965 11.372 C 112.885 11.292,113.773 10.832,114.938 10.349 C 116.103 9.866,116.970 9.386,116.866 9.281 C 116.683 9.098,112.104 10.948,107.931 12.890 C 106.824 13.405,106.016 13.983,106.134 14.175 C 106.253 14.366,106.080 14.419,105.751 14.293 C 105.183 14.075,100.783 16.016,101.108 16.341 C 101.193 16.426,102.157 16.042,103.250 15.488 C 104.344 14.933,105.291 14.535,105.355 14.601 C 105.419 14.668,102.468 16.226,98.797 18.063 C 95.126 19.901,92.214 21.256,92.325 21.075 C 92.437 20.894,93.478 20.297,94.639 19.747 C 97.026 18.617,97.498 18.086,95.315 18.986 C 93.183 19.865,91.364 21.054,91.591 21.421 C 91.701 21.599,91.589 21.869,91.343 22.021 C 91.063 22.194,90.998 22.132,91.168 21.856 C 91.805 20.826,90.037 21.782,81.644 27.011 C 76.150 30.434,68.747 35.879,69.009 36.303 C 69.118 36.480,68.908 36.859,68.543 37.146 C 67.941 37.618,67.928 37.604,68.402 36.998 C 69.337 35.806,68.468 36.283,65.746 38.455 C 64.280 39.625,63.167 40.721,63.273 40.892 C 63.379 41.063,61.791 42.639,59.744 44.394 C 57.697 46.149,54.431 49.128,52.486 51.014 C 50.540 52.900,48.948 54.335,48.948 54.202 C 48.948 54.070,49.766 53.182,50.765 52.229 C 51.764 51.276,52.407 50.492,52.193 50.487 C 51.636 50.474,42.033 60.177,41.934 60.853 C 41.851 61.419,38.289 66.157,37.946 66.157 C 37.744 66.157,38.098 65.677,40.334 62.920 C 41.251 61.789,41.535 61.256,41.035 61.602 C 39.905 62.385,35.477 68.383,35.728 68.790 C 35.838 68.968,35.559 69.438,35.107 69.834 C 34.578 70.298,34.400 70.350,34.608 69.981 C 34.812 69.618,34.626 69.674,34.100 70.136 C 33.130 70.987,32.960 71.855,33.916 71.079 C 34.271 70.791,33.798 71.501,32.864 72.658 C 31.930 73.815,30.761 75.277,30.266 75.908 L 29.365 77.055 30.042 75.908 C 30.414 75.277,31.313 74.030,32.040 73.136 C 32.767 72.242,33.212 71.515,33.029 71.521 C 32.511 71.538,26.769 79.450,26.769 80.147 C 26.769 80.259,26.984 80.227,27.247 80.076 C 27.524 79.916,27.591 79.947,27.406 80.149 C 27.231 80.340,26.901 80.497,26.673 80.497 C 26.445 80.497,26.179 80.736,26.082 81.028 C 25.964 81.382,26.068 81.458,26.396 81.256 C 26.720 81.056,26.793 81.105,26.610 81.400 C 26.458 81.647,26.184 81.756,26.002 81.643 C 25.503 81.335,23.592 84.037,23.844 84.695 C 23.966 85.011,23.873 85.227,23.637 85.177 C 23.402 85.127,22.633 86.094,21.930 87.326 C 20.513 89.805,20.433 90.036,21.128 89.636 C 21.406 89.476,21.473 89.507,21.287 89.709 C 21.112 89.901,20.800 90.057,20.594 90.057 C 20.388 90.057,19.938 90.574,19.594 91.205 C 19.250 91.836,18.385 93.349,17.672 94.568 C 16.959 95.787,16.475 97.044,16.596 97.360 C 16.739 97.733,16.661 97.840,16.374 97.663 C 16.076 97.478,16.013 97.603,16.183 98.045 C 16.327 98.422,16.279 98.605,16.070 98.476 C 15.588 98.178,13.654 102.022,13.927 102.735 C 14.050 103.054,13.975 103.188,13.751 103.050 C 13.272 102.753,10.204 109.266,10.482 109.990 C 10.591 110.274,10.480 110.466,10.236 110.416 C 9.690 110.304,7.998 115.298,8.281 116.185 C 8.452 116.723,8.421 116.735,8.087 116.263 C 7.633 115.620,7.757 115.381,6.019 120.268 C 4.253 125.234,3.409 128.253,3.586 128.968 C 3.678 129.336,3.610 129.549,3.435 129.441 C 3.019 129.184,1.802 133.251,1.756 135.048 C 1.737 135.816,1.619 136.381,1.494 136.305 C 0.304 135.578,0.212 138.871,0.106 185.660 L 0.001 232.314 1.547 238.050 C 4.337 248.404,4.548 249.122,5.302 250.860 C 5.713 251.807,6.391 253.614,6.808 254.876 C 7.991 258.455,9.783 263.174,10.439 264.436 C 10.767 265.067,11.831 267.304,12.804 269.407 C 13.777 271.511,14.770 273.576,15.012 273.996 C 15.254 274.417,15.960 275.793,16.581 277.055 C 17.203 278.317,18.501 280.646,19.467 282.230 C 20.433 283.815,21.482 285.567,21.797 286.124 C 23.379 288.917,27.281 294.874,28.675 296.626 C 29.542 297.715,30.925 299.608,31.749 300.833 C 33.875 303.992,34.510 304.867,35.308 305.736 C 37.065 307.650,40.385 311.438,43.709 315.320 C 47.835 320.138,56.669 328.649,61.759 332.711 C 63.652 334.221,65.668 335.864,66.239 336.362 C 66.810 336.860,68.187 337.912,69.298 338.702 C 70.410 339.491,72.352 340.929,73.614 341.898 C 76.369 344.013,85.313 349.914,87.189 350.855 C 87.925 351.224,88.786 351.747,89.101 352.016 C 89.647 352.481,90.464 352.957,95.793 355.911 C 100.279 358.398,110.429 363.236,112.085 363.676 C 113.010 363.922,114.283 364.439,114.914 364.825 C 116.788 365.971,129.070 370.450,132.782 371.340 C 133.877 371.603,135.512 372.145,136.416 372.544 C 137.320 372.944,139.508 373.524,141.278 373.833 C 143.048 374.142,145.150 374.668,145.948 375.002 C 146.747 375.335,149.033 375.854,151.028 376.153 C 153.024 376.453,155.960 377.031,157.553 377.438 C 159.147 377.845,163.197 378.433,166.554 378.745 C 169.911 379.057,174.034 379.576,175.717 379.899 C 183.556 381.401,215.553 381.304,224.843 379.749 C 227.269 379.343,231.405 378.833,234.034 378.615 C 236.663 378.397,240.105 377.883,241.683 377.472 C 243.260 377.061,246.013 376.533,247.801 376.300 C 249.589 376.066,252.342 375.461,253.920 374.956 C 255.497 374.450,257.648 373.922,258.700 373.782 C 259.751 373.642,261.644 373.124,262.906 372.630 C 264.168 372.136,266.233 371.476,267.495 371.163 C 282.958 367.327,288.309 362.680,285.092 355.879 C 284.086 353.753,280.572 350.163,246.937 316.899 C 229.330 299.485,228.818 299.134,223.327 300.717 C 222.170 301.050,218.556 301.495,215.296 301.705 C 212.036 301.916,207.449 302.289,205.101 302.534 C 201.883 302.871,199.862 302.874,196.880 302.545 C 194.705 302.306,190.111 301.927,186.671 301.704 C 182.190 301.413,179.846 301.084,178.402 300.544 C 177.294 300.129,175.032 299.550,173.375 299.257 C 171.719 298.964,169.553 298.375,168.562 297.948 C 167.572 297.522,166.109 297.053,165.312 296.908 C 164.515 296.763,162.744 296.172,161.377 295.595 C 160.010 295.018,157.686 294.061,156.214 293.468 C 148.975 290.556,135.831 282.967,132.122 279.560 C 131.281 278.787,129.044 276.878,127.151 275.317 C 120.853 270.125,112.849 261.329,108.245 254.540 C 107.942 254.094,107.403 253.384,107.047 252.964 C 106.691 252.543,105.989 251.424,105.486 250.478 C 104.983 249.532,103.913 247.737,103.108 246.491 C 102.303 245.245,101.366 243.610,101.026 242.858 C 100.686 242.106,100.097 241.030,99.718 240.465 C 99.338 239.901,98.769 238.696,98.452 237.788 C 98.135 236.880,97.466 235.277,96.964 234.226 C 95.648 231.465,93.799 226.764,93.504 225.430 C 93.364 224.799,92.835 223.243,92.328 221.971 C 91.821 220.700,91.165 218.279,90.870 216.591 C 90.576 214.904,89.995 212.846,89.580 212.019 C 89.019 210.900,88.762 209.355,88.577 205.970 C 88.292 200.783,87.756 196.828,86.969 194.099 C 86.116 191.143,86.237 182.357,87.181 178.671 C 87.948 175.676,88.718 168.972,88.719 165.283 C 88.719 164.111,88.965 162.886,89.306 162.366 C 90.081 161.183,90.564 159.466,91.031 156.233 C 91.242 154.771,91.867 152.650,92.420 151.521 C 93.047 150.239,93.438 148.775,93.462 147.622 C 93.482 146.608,93.657 145.874,93.851 145.991 C 94.044 146.109,94.094 145.921,93.960 145.574 C 93.815 145.195,93.895 144.979,94.160 145.033 C 94.404 145.083,95.017 144.092,95.522 142.830 C 97.456 138.005,100.200 132.400,102.396 128.790 C 103.128 127.585,103.625 126.343,103.502 126.022 C 103.379 125.701,103.465 125.480,103.694 125.530 C 103.923 125.580,104.198 125.382,104.304 125.090 C 104.433 124.734,104.335 124.659,104.006 124.862 C 103.681 125.063,103.609 125.014,103.791 124.718 C 103.944 124.472,104.217 124.362,104.398 124.474 C 104.579 124.586,104.998 124.293,105.328 123.822 C 106.033 122.815,106.111 122.212,105.486 122.599 C 105.210 122.769,105.148 122.703,105.321 122.424 C 105.473 122.178,105.745 122.067,105.925 122.178 C 106.104 122.289,106.609 121.878,107.045 121.265 C 108.164 119.694,108.031 119.276,106.850 120.650 L 105.864 121.797 106.690 120.550 C 107.144 119.864,107.663 119.394,107.842 119.505 C 108.022 119.616,108.439 119.322,108.769 118.851 C 109.475 117.843,109.553 117.241,108.928 117.627 C 108.652 117.798,108.590 117.732,108.763 117.452 C 108.915 117.206,109.186 117.095,109.365 117.206 C 109.544 117.316,110.048 116.952,110.486 116.396 C 111.352 115.294,111.543 114.516,110.840 114.950 C 110.564 115.121,110.502 115.055,110.675 114.776 C 110.827 114.529,111.098 114.418,111.277 114.529 C 111.456 114.639,112.648 113.439,113.927 111.862 C 116.299 108.937,116.777 108.115,115.583 109.015 C 115.215 109.293,115.768 108.626,116.812 107.532 C 117.855 106.439,118.791 105.545,118.891 105.545 C 118.991 105.545,118.578 106.061,117.973 106.692 C 117.369 107.323,116.959 107.839,117.062 107.839 C 117.370 107.839,125.598 99.637,125.533 99.395 C 125.500 99.272,125.699 99.171,125.976 99.171 C 126.659 99.171,131.196 95.577,130.971 95.213 C 130.873 95.054,131.092 94.690,131.457 94.403 C 132.059 93.931,132.072 93.945,131.598 94.551 C 131.285 94.949,131.237 95.220,131.479 95.220 C 131.882 95.220,132.488 94.501,132.499 94.009 C 132.502 93.869,132.661 93.611,132.853 93.435 C 133.058 93.247,133.076 93.333,132.895 93.644 C 132.685 94.007,132.755 94.112,133.121 93.979 C 133.413 93.873,133.612 93.602,133.563 93.377 C 133.515 93.152,134.031 92.600,134.711 92.150 L 135.946 91.333 134.799 92.318 C 133.085 93.791,133.914 93.515,136.811 91.647 C 141.449 88.658,145.826 86.170,149.522 84.423 C 156.111 81.307,158.110 80.416,159.555 79.948 C 160.341 79.694,161.082 79.326,161.203 79.131 C 161.508 78.637,161.130 78.688,159.924 79.301 C 159.356 79.590,158.461 79.937,157.935 80.072 C 157.409 80.207,157.901 79.887,159.028 79.359 C 160.156 78.832,161.224 78.490,161.402 78.601 C 161.902 78.910,166.360 77.759,168.054 76.883 C 168.887 76.452,170.092 76.079,170.731 76.054 L 171.893 76.009 170.746 75.689 C 169.923 75.460,170.204 75.424,171.735 75.563 C 173.190 75.695,174.409 75.557,175.559 75.130 C 179.936 73.505,179.917 73.515,179.138 73.348 C 178.729 73.260,180.287 73.225,182.600 73.270 C 185.771 73.332,186.336 73.278,184.895 73.052 C 183.497 72.833,183.960 72.795,186.616 72.910 C 188.691 73.000,192.124 72.816,194.622 72.480 C 200.111 71.743,202.257 71.744,207.486 72.485 C 209.953 72.835,213.151 73.010,215.296 72.915 C 217.316 72.824,218.080 72.863,217.017 73.001 C 215.315 73.222,215.525 73.273,218.929 73.468 C 221.800 73.632,223.230 73.909,224.665 74.580 C 226.104 75.251,227.241 75.471,229.254 75.467 C 231.001 75.463,231.599 75.558,230.975 75.742 L 230.019 76.023 230.975 76.070 C 231.501 76.095,232.682 76.457,233.600 76.873 C 234.518 77.290,236.325 77.904,237.615 78.238 C 238.906 78.572,240.134 78.978,240.344 79.142 C 240.554 79.306,241.759 79.815,243.021 80.274 C 244.283 80.733,248.540 82.735,252.482 84.723 C 259.935 88.481,260.260 88.622,259.811 87.895 C 259.640 87.619,259.706 87.557,259.985 87.730 C 260.232 87.882,260.344 88.151,260.235 88.327 C 260.127 88.503,260.899 89.265,261.951 90.021 C 263.856 91.390,264.919 91.795,264.399 90.954 C 264.229 90.679,264.295 90.617,264.574 90.790 C 264.821 90.942,264.930 91.215,264.818 91.396 C 264.706 91.577,265.000 91.996,265.471 92.326 C 266.478 93.031,267.080 93.109,266.694 92.484 C 266.523 92.208,266.589 92.146,266.869 92.319 C 267.115 92.471,267.226 92.743,267.115 92.923 C 267.003 93.102,267.414 93.607,268.028 94.043 C 269.599 95.162,270.017 95.029,268.642 93.848 L 267.495 92.862 268.731 93.680 C 269.411 94.129,269.927 94.681,269.878 94.906 C 269.830 95.131,270.029 95.402,270.321 95.509 C 270.690 95.643,270.755 95.541,270.534 95.174 C 270.265 94.726,270.314 94.726,270.863 95.171 C 271.621 95.786,271.719 96.138,271.033 95.782 C 270.547 95.530,270.960 95.932,277.055 101.633 C 282.236 106.479,281.897 105.831,276.482 100.537 C 272.827 96.964,272.512 96.591,275.143 98.955 C 277.036 100.654,279.790 103.304,281.262 104.842 C 282.734 106.380,283.293 107.047,282.505 106.325 C 281.716 105.603,281.071 105.183,281.071 105.392 C 281.071 105.891,283.929 108.677,284.182 108.425 C 284.289 108.318,284.881 108.781,285.496 109.454 C 286.112 110.127,286.315 110.449,285.946 110.168 C 284.981 109.432,285.121 110.261,286.108 111.126 C 286.634 111.588,286.820 111.644,286.616 111.281 C 286.411 110.918,286.598 110.975,287.124 111.436 C 288.051 112.250,288.280 112.792,287.380 112.046 C 287.065 111.784,286.807 111.736,286.807 111.940 C 286.807 112.429,288.151 113.634,288.409 113.376 C 288.519 113.265,288.850 113.470,289.142 113.831 C 289.495 114.265,289.513 114.390,289.197 114.200 C 288.384 113.711,288.658 114.323,290.304 116.670 C 291.870 118.902,292.451 119.472,292.022 118.356 C 291.694 117.500,292.070 117.663,292.568 118.593 C 292.873 119.163,292.877 119.327,292.581 119.144 C 291.774 118.645,292.176 119.473,294.261 122.607 C 295.416 124.343,296.569 126.248,296.823 126.840 C 297.558 128.550,298.689 130.047,299.069 129.813 C 299.261 129.694,299.320 129.852,299.200 130.164 C 299.003 130.678,300.701 134.670,303.041 139.197 C 303.530 140.143,304.056 141.520,304.211 142.256 C 304.366 142.992,304.881 144.369,305.356 145.315 C 305.831 146.262,306.433 148.069,306.692 149.331 C 306.952 150.593,307.550 152.400,308.021 153.346 C 308.542 154.391,308.978 156.175,309.131 157.888 C 309.270 159.439,309.797 161.762,310.304 163.050 C 312.460 168.537,312.621 205.784,310.506 209.955 C 309.019 212.887,308.629 217.581,309.596 220.907 C 310.253 223.168,368.964 282.780,371.474 283.734 C 375.973 285.444,381.470 282.322,383.566 276.864 C 383.849 276.128,384.478 274.927,384.965 274.194 C 385.452 273.462,385.851 272.727,385.851 272.561 C 385.851 272.395,386.557 270.757,387.421 268.921 C 390.349 262.696,390.765 261.763,391.980 258.700 C 392.647 257.017,393.450 254.780,393.764 253.728 C 394.078 252.677,394.567 251.300,394.850 250.669 C 395.438 249.357,397.301 243.042,398.897 236.953 L 399.986 232.797 399.897 185.710 C 399.816 142.609,399.754 138.461,399.161 136.711 C 398.805 135.660,397.791 132.304,396.908 129.254 C 395.137 123.134,394.626 121.786,394.286 122.335 C 394.161 122.538,394.041 122.069,394.020 121.294 C 393.975 119.674,392.294 115.266,391.756 115.359 C 391.558 115.393,391.384 114.869,391.370 114.195 C 391.356 113.520,390.811 111.857,390.158 110.499 C 389.505 109.142,388.703 107.373,388.375 106.569 C 388.047 105.765,387.605 105.215,387.393 105.346 C 387.179 105.479,387.096 105.352,387.207 105.063 C 387.468 104.382,384.376 98.200,383.916 98.484 C 383.723 98.604,383.662 98.450,383.780 98.142 C 384.006 97.554,383.146 95.623,382.007 94.160 C 381.554 93.579,381.277 93.453,381.169 93.778 C 381.080 94.045,381.007 93.718,381.007 93.051 C 381.007 91.727,379.903 89.716,379.360 90.051 C 379.173 90.167,378.896 90.060,378.744 89.813 C 378.571 89.534,378.633 89.468,378.908 89.638 C 379.457 89.978,379.470 89.659,378.948 88.683 C 378.727 88.270,378.395 88.026,378.210 88.141 C 378.025 88.255,377.749 88.148,377.596 87.901 C 377.414 87.605,377.486 87.557,377.811 87.757 C 378.138 87.959,378.243 87.883,378.125 87.529 C 378.027 87.237,377.761 86.998,377.533 86.998 C 377.306 86.998,376.976 86.841,376.801 86.650 C 376.615 86.448,376.682 86.417,376.960 86.577 C 377.665 86.983,377.553 86.571,376.417 84.581 C 375.141 82.344,374.365 81.417,373.971 81.660 C 373.804 81.763,373.542 81.647,373.390 81.400 C 373.207 81.105,373.280 81.056,373.604 81.256 C 373.932 81.458,374.036 81.382,373.918 81.028 C 373.821 80.736,373.549 80.497,373.314 80.497 C 373.079 80.497,372.663 80.247,372.390 79.942 C 371.961 79.463,371.984 79.456,372.562 79.893 C 372.930 80.172,373.231 80.285,373.231 80.146 C 373.231 79.632,371.570 77.665,371.285 77.842 C 371.123 77.942,370.865 77.822,370.713 77.576 C 370.540 77.297,370.602 77.231,370.878 77.401 C 371.121 77.551,371.319 77.582,371.319 77.470 C 371.319 76.817,367.453 71.547,366.958 71.525 C 366.768 71.517,366.870 71.812,367.187 72.180 C 367.748 72.834,368.577 74.184,368.184 73.805 C 367.348 72.998,363.267 67.993,363.779 68.402 C 364.857 69.264,364.522 68.279,363.396 67.275 C 362.628 66.590,362.503 66.548,362.918 67.113 C 363.433 67.814,363.426 67.835,362.833 67.372 C 362.478 67.093,362.274 66.638,362.381 66.360 C 362.586 65.825,358.004 60.224,357.651 60.577 C 357.423 60.805,343.147 46.998,343.187 46.589 C 343.226 46.194,341.406 44.359,340.976 44.359 C 340.765 44.359,341.010 44.818,341.520 45.379 C 342.030 45.940,340.684 44.879,338.528 43.020 C 334.804 39.810,334.007 39.018,335.086 39.601 C 335.349 39.743,334.790 39.158,333.843 38.301 C 332.897 37.445,331.950 36.739,331.740 36.733 C 331.530 36.727,332.046 37.339,332.887 38.092 L 334.417 39.461 332.790 38.244 C 331.895 37.574,331.254 36.878,331.366 36.697 C 331.570 36.367,329.981 35.105,324.665 31.378 C 320.666 28.574,314.323 24.442,313.603 24.172 C 313.272 24.048,312.141 23.403,311.090 22.738 C 308.732 21.248,307.457 20.568,307.457 20.800 C 307.457 20.897,308.489 21.604,309.751 22.371 C 311.013 23.138,312.046 23.858,312.046 23.972 C 312.046 24.086,311.659 23.930,311.185 23.626 C 307.488 21.245,295.364 14.914,294.503 14.914 C 294.291 14.914,294.012 14.742,293.882 14.533 C 293.517 13.942,295.227 14.683,301.462 17.819 C 304.581 19.388,307.049 20.538,306.947 20.374 C 306.566 19.765,289.484 11.468,288.631 11.478 C 288.297 11.482,288.324 11.600,288.719 11.855 C 289.536 12.382,289.060 12.324,287.197 11.666 C 286.307 11.352,285.398 11.207,285.177 11.343 C 284.957 11.479,284.888 11.410,285.024 11.190 C 285.244 10.834,283.434 10.085,275.143 7.105 C 274.302 6.802,273.802 6.543,274.031 6.528 C 274.460 6.500,277.252 7.322,278.552 7.858 C 279.034 8.057,279.199 8.022,279.034 7.756 C 278.897 7.534,277.363 6.970,275.625 6.502 C 273.888 6.035,272.156 5.489,271.776 5.287 C 270.756 4.747,259.379 1.525,258.602 1.557 C 258.035 1.579,258.049 1.633,258.700 1.912 L 259.465 2.241 258.700 2.238 C 257.526 2.234,254.728 1.242,255.641 1.153 C 256.061 1.112,255.545 0.842,254.493 0.552 C 251.155 -0.367,148.032 -0.171,144.168 0.762 M261.759 2.677 C 262.734 3.096,261.728 3.096,260.421 2.677 C 259.652 2.431,259.615 2.368,260.229 2.359 C 260.650 2.353,261.338 2.496,261.759 2.677 M131.628 4.037 C 130.515 4.336,129.138 4.852,128.569 5.183 C 127.999 5.514,127.868 5.680,128.277 5.553 C 128.687 5.425,129.891 5.053,130.954 4.726 C 134.292 3.699,134.816 3.502,134.226 3.497 C 133.910 3.494,132.741 3.737,131.628 4.037 M267.113 4.258 C 267.638 4.488,267.458 4.517,266.539 4.350 C 265.803 4.216,264.857 3.957,264.436 3.773 C 263.911 3.543,264.091 3.514,265.010 3.681 C 265.746 3.814,266.692 4.074,267.113 4.258 M271.319 5.538 C 274.342 6.736,273.556 6.753,270.363 5.559 C 268.996 5.047,268.136 4.629,268.451 4.629 C 268.767 4.628,270.057 5.038,271.319 5.538 M123.709 6.686 C 120.280 7.823,117.074 9.137,117.672 9.160 C 117.927 9.170,119.046 8.812,120.158 8.365 C 121.270 7.918,123.384 7.161,124.857 6.682 C 126.329 6.204,127.275 5.809,126.960 5.805 C 126.644 5.801,125.182 6.198,123.709 6.686 M281.836 9.031 C 282.151 9.163,283.557 9.766,284.959 10.372 C 286.361 10.977,287.652 11.464,287.827 11.455 C 288.363 11.425,283.270 9.164,282.233 8.971 C 281.699 8.872,281.520 8.899,281.836 9.031 M109.796 12.824 C 108.242 13.553,106.866 14.136,106.736 14.121 C 106.364 14.075,111.795 11.471,112.229 11.486 C 112.444 11.494,111.349 12.096,109.796 12.824 M291.778 13.193 C 292.725 13.700,293.327 14.115,293.117 14.115 C 292.906 14.115,291.960 13.700,291.013 13.193 C 290.067 12.686,289.465 12.272,289.675 12.272 C 289.885 12.272,290.832 12.686,291.778 13.193 M98.853 17.043 C 96.969 18.020,96.796 18.511,98.662 17.586 C 100.578 16.635,100.863 16.443,100.351 16.446 C 100.158 16.447,99.484 16.716,98.853 17.043 M90.249 22.582 C 89.291 23.234,87.361 24.209,87.664 23.888 C 88.147 23.377,90.037 22.237,90.440 22.214 C 90.650 22.201,90.564 22.367,90.249 22.582 M86.450 24.824 C 85.141 25.830,83.365 26.852,83.365 26.600 C 83.365 26.379,86.854 24.105,87.189 24.108 C 87.294 24.108,86.962 24.431,86.450 24.824 M314.723 25.450 C 314.723 25.555,314.207 25.374,313.576 25.048 C 312.945 24.722,312.428 24.369,312.428 24.263 C 312.428 24.158,312.945 24.339,313.576 24.665 C 314.207 24.992,314.723 25.345,314.723 25.450 M319.598 28.386 C 322.400 30.275,321.369 29.904,318.164 27.870 C 316.482 26.801,315.105 25.844,315.105 25.743 C 315.105 25.535,317.180 26.755,319.598 28.386 M82.951 26.913 C 82.313 27.491,75.267 32.086,75.717 31.631 C 76.410 30.929,82.531 26.769,82.870 26.769 C 83.002 26.769,83.039 26.834,82.951 26.913 M327.247 33.725 C 329.192 35.160,330.784 36.416,330.784 36.514 C 330.784 36.721,322.373 30.716,321.797 30.098 C 321.141 29.394,323.560 31.004,327.247 33.725 M74.029 33.004 C 70.235 35.862,69.547 36.339,69.792 35.942 C 70.122 35.409,74.552 32.114,74.899 32.144 C 75.033 32.155,74.642 32.542,74.029 33.004 M67.686 37.607 C 67.686 37.680,66.783 38.467,65.679 39.358 L 63.671 40.976 65.573 39.226 C 67.407 37.538,67.686 37.324,67.686 37.607 M336.520 40.937 C 339.438 43.434,340.725 44.409,340.701 44.105 C 340.669 43.708,335.924 39.767,335.495 39.781 C 335.323 39.786,335.784 40.307,336.520 40.937 M57.553 45.341 C 54.818 47.759,52.513 49.947,52.429 50.203 C 52.346 50.460,53.207 49.809,54.344 48.757 C 55.481 47.706,57.915 45.567,59.754 44.005 C 61.593 42.443,63.098 41.109,63.098 41.041 C 63.098 40.565,61.923 41.476,57.553 45.341 M344.359 47.669 C 345.201 48.426,348.513 51.636,351.721 54.803 C 354.928 57.969,357.553 60.373,357.553 60.144 C 357.553 59.601,343.795 46.268,343.248 46.282 C 343.018 46.288,343.518 46.912,344.359 47.669 M45.552 57.648 C 45.351 58.016,44.538 58.920,43.745 59.656 C 42.380 60.923,42.393 60.888,44.000 59.004 C 45.830 56.859,46.119 56.606,45.552 57.648 M359.380 62.722 C 360.022 63.750,359.781 63.674,358.680 62.503 C 358.175 61.965,358.020 61.624,358.335 61.745 C 358.650 61.866,359.120 62.306,359.380 62.722 M365.457 70.154 C 366.037 70.881,366.580 71.406,366.665 71.321 C 366.870 71.116,365.096 68.882,364.706 68.855 C 364.540 68.843,364.878 69.428,365.457 70.154 M199.713 71.398 C 199.240 71.489,198.466 71.489,197.992 71.398 C 197.519 71.307,197.906 71.232,198.853 71.232 C 199.799 71.232,200.186 71.307,199.713 71.398 M204.111 71.392 C 203.743 71.488,203.141 71.488,202.772 71.392 C 202.404 71.296,202.706 71.217,203.442 71.217 C 204.178 71.217,204.479 71.296,204.111 71.392 M193.790 72.156 C 193.425 72.251,192.736 72.255,192.261 72.163 C 191.785 72.072,192.084 71.994,192.925 71.989 C 193.767 71.985,194.156 72.060,193.790 72.156 M209.847 72.157 C 209.479 72.253,208.877 72.253,208.509 72.157 C 208.141 72.060,208.442 71.982,209.178 71.982 C 209.914 71.982,210.215 72.060,209.847 72.157 M190.535 72.545 C 190.062 72.636,189.288 72.636,188.815 72.545 C 188.341 72.454,188.728 72.379,189.675 72.379 C 190.621 72.379,191.009 72.454,190.535 72.545 M213.098 72.545 C 212.624 72.636,211.850 72.636,211.377 72.545 C 210.903 72.454,211.291 72.379,212.237 72.379 C 213.184 72.379,213.571 72.454,213.098 72.545 M370.206 76.164 C 370.787 77.249,370.410 76.993,369.406 75.621 C 368.843 74.852,368.751 74.585,369.164 74.921 C 369.531 75.219,370.000 75.778,370.206 76.164 M167.553 76.677 C 166.428 77.201,165.309 77.627,165.067 77.624 C 164.449 77.617,168.324 75.783,169.025 75.751 C 169.340 75.736,168.678 76.153,167.553 76.677 M235.021 76.657 C 236.266 77.174,237.099 77.604,236.872 77.613 C 236.645 77.622,235.440 77.206,234.195 76.689 C 232.950 76.172,232.117 75.742,232.344 75.733 C 232.571 75.724,233.776 76.140,235.021 76.657 M154.876 81.453 C 154.140 81.856,153.365 82.186,153.155 82.186 C 152.945 82.186,153.375 81.856,154.111 81.453 C 154.847 81.050,155.621 80.720,155.832 80.720 C 156.042 80.720,155.612 81.050,154.876 81.453 M248.434 81.820 C 249.663 82.443,250.561 82.959,250.429 82.968 C 250.103 82.988,247.827 81.971,246.654 81.279 C 245.001 80.305,246.102 80.639,248.434 81.820 M255.449 85.488 C 255.449 85.593,254.933 85.412,254.302 85.086 C 253.671 84.760,253.155 84.407,253.155 84.302 C 253.155 84.196,253.671 84.377,254.302 84.704 C 254.933 85.030,255.449 85.383,255.449 85.488 M139.369 89.423 C 138.718 89.999,136.138 91.464,136.138 91.257 C 136.138 91.147,136.869 90.618,137.763 90.083 C 139.414 89.093,140.026 88.841,139.369 89.423 M128.491 96.939 C 127.998 97.464,127.513 97.813,127.414 97.714 C 127.248 97.548,128.854 96.027,129.225 95.997 C 129.315 95.990,128.984 96.414,128.491 96.939 M122.371 102.294 C 120.804 103.872,119.436 105.163,119.331 105.163 C 119.226 105.163,120.422 103.872,121.989 102.294 C 123.555 100.717,124.923 99.426,125.029 99.426 C 125.134 99.426,123.938 100.717,122.371 102.294 M388.501 108.031 C 388.501 108.241,388.255 107.983,387.954 107.457 C 387.654 106.931,387.408 106.329,387.408 106.119 C 387.408 105.908,387.654 106.166,387.954 106.692 C 388.255 107.218,388.501 107.820,388.501 108.031 M392.707 117.973 C 392.707 118.184,392.461 117.925,392.161 117.400 C 391.860 116.874,391.614 116.272,391.614 116.061 C 391.614 115.851,391.860 116.109,392.161 116.635 C 392.461 117.161,392.707 117.763,392.707 117.973 M303.403 138.337 C 303.751 139.020,303.949 139.579,303.844 139.579 C 303.623 139.579,302.486 137.459,302.486 137.049 C 302.486 136.650,302.693 136.941,303.403 138.337 M309.633 158.222 C 309.536 158.590,309.458 158.289,309.458 157.553 C 309.458 156.816,309.536 156.515,309.633 156.883 C 309.729 157.251,309.729 157.854,309.633 158.222 M88.224 167.973 C 88.133 168.446,88.058 168.059,88.058 167.113 C 88.058 166.166,88.133 165.779,88.224 166.252 C 88.315 166.726,88.315 167.500,88.224 167.973 M311.938 168.924 C 311.850 169.505,311.776 169.120,311.773 168.069 C 311.770 167.017,311.842 166.542,311.933 167.012 C 312.023 167.482,312.026 168.343,311.938 168.924 M312.320 175.425 C 312.232 176.006,312.158 175.621,312.155 174.570 C 312.152 173.518,312.224 173.043,312.315 173.513 C 312.406 173.983,312.408 174.844,312.320 175.425 M312.702 181.549 C 312.615 182.127,312.543 181.654,312.543 180.497 C 312.543 179.340,312.615 178.867,312.702 179.446 C 312.790 180.024,312.790 180.970,312.702 181.549 M313.839 183.843 C 313.743 184.211,313.664 183.910,313.664 183.174 C 313.664 182.438,313.743 182.137,313.839 182.505 C 313.935 182.873,313.935 183.475,313.839 183.843 M312.707 193.777 C 312.625 194.571,312.555 194.015,312.554 192.543 C 312.552 191.071,312.620 190.422,312.704 191.100 C 312.789 191.779,312.790 192.984,312.707 193.777 M312.316 199.709 C 312.225 200.184,312.147 199.885,312.142 199.044 C 312.138 198.203,312.213 197.813,312.309 198.179 C 312.404 198.545,312.408 199.233,312.316 199.709 M311.938 206.783 C 311.850 207.364,311.776 206.979,311.773 205.927 C 311.770 204.876,311.842 204.400,311.933 204.870 C 312.023 205.341,312.026 206.201,311.938 206.783 M88.225 207.357 C 88.133 207.833,88.055 207.533,88.051 206.692 C 88.046 205.851,88.121 205.462,88.217 205.827 C 88.313 206.193,88.316 206.881,88.225 207.357 M309.643 218.255 C 309.556 218.836,309.481 218.451,309.478 217.400 C 309.476 216.348,309.547 215.872,309.638 216.343 C 309.729 216.813,309.731 217.673,309.643 218.255 M310.397 218.260 C 310.301 218.628,310.223 218.327,310.223 217.591 C 310.223 216.855,310.301 216.554,310.397 216.922 C 310.494 217.290,310.494 217.892,310.397 218.260 M298.789 223.859 C 298.789 224.179,298.931 224.353,299.104 224.246 C 299.278 224.139,299.711 224.662,300.067 225.410 C 300.424 226.157,300.952 226.769,301.241 226.769 C 301.540 226.769,301.649 226.958,301.493 227.210 C 301.324 227.484,301.388 227.548,301.662 227.379 C 301.905 227.229,302.103 227.298,302.103 227.533 C 302.103 227.769,302.275 227.855,302.486 227.725 C 302.696 227.595,302.868 227.757,302.868 228.085 C 302.868 228.412,303.050 228.681,303.273 228.681 C 303.496 228.681,303.572 228.853,303.442 229.063 C 303.312 229.273,303.389 229.446,303.613 229.446 C 303.837 229.446,304.389 229.870,304.840 230.388 C 305.291 230.907,305.849 231.224,306.081 231.092 C 306.312 230.960,306.373 230.993,306.217 231.165 C 306.062 231.338,306.126 231.709,306.360 231.992 C 306.970 232.727,306.322 232.625,305.384 231.838 C 304.694 231.260,304.702 231.301,305.447 232.147 C 306.038 232.819,306.181 233.245,305.908 233.518 C 305.635 233.791,305.696 234.066,306.102 234.403 C 306.503 234.736,306.692 234.755,306.692 234.464 C 306.692 234.228,306.510 234.034,306.287 234.034 C 306.064 234.034,305.994 233.854,306.130 233.633 C 306.474 233.076,307.527 233.983,307.200 234.556 C 307.064 234.795,307.093 234.863,307.265 234.707 C 307.753 234.265,308.546 235.132,308.347 235.892 C 308.249 236.267,308.439 236.798,308.769 237.072 C 309.481 237.663,309.536 237.357,308.924 236.208 C 308.522 235.453,308.540 235.423,309.115 235.898 C 310.017 236.642,309.909 235.825,308.996 234.999 C 308.580 234.622,308.349 234.123,308.483 233.888 C 308.617 233.653,308.591 233.584,308.424 233.734 C 308.069 234.054,306.692 233.397,306.692 232.908 C 306.692 232.723,306.933 232.608,307.227 232.651 C 307.992 232.763,309.013 233.682,308.785 234.051 C 308.679 234.223,308.755 234.465,308.954 234.588 C 310.272 235.402,309.556 233.660,307.989 232.236 C 306.960 231.302,304.469 228.904,302.454 226.908 C 300.438 224.911,298.789 223.539,298.789 223.859 M316.061 226.769 C 317.734 228.451,319.016 229.828,318.911 229.828 C 318.806 229.828,317.352 228.451,315.679 226.769 C 314.006 225.086,312.723 223.709,312.829 223.709 C 312.934 223.709,314.388 225.086,316.061 226.769 M240.100 233.236 L 239.197 233.966 239.093 258.559 C 238.982 284.921,238.934 285.589,237.083 286.683 C 236.458 287.052,235.925 287.575,235.899 287.845 C 235.872 288.115,235.816 288.552,235.774 288.815 C 235.732 289.077,236.743 290.411,238.021 291.778 L 240.344 294.264 238.050 292.138 C 235.217 289.514,233.821 288.449,234.954 289.777 C 235.968 290.965,235.274 290.846,233.864 289.590 C 231.727 287.686,248.586 304.683,260.803 316.750 C 267.428 323.294,282.145 337.948,293.507 349.315 C 304.870 360.681,317.088 372.776,320.658 376.192 L 327.151 382.402 363.049 382.406 C 395.493 382.409,398.899 382.352,398.452 381.814 C 398.044 381.322,398.052 381.239,398.500 381.336 C 398.798 381.400,399.251 381.711,399.508 382.027 C 399.908 382.518,399.977 382.476,399.988 381.740 C 399.995 381.267,399.828 380.858,399.618 380.832 C 399.407 380.805,399.020 380.761,398.757 380.732 C 398.491 380.703,398.332 380.300,398.399 379.824 C 398.465 379.353,398.325 378.967,398.089 378.967 C 397.853 378.967,397.774 379.151,397.912 379.375 C 398.194 379.830,396.929 380.917,396.457 380.626 C 396.292 380.524,396.182 380.582,396.212 380.756 C 396.383 381.742,396.164 382.218,395.803 381.646 C 395.604 381.332,395.036 381.043,394.540 381.005 C 393.923 380.958,390.875 378.183,384.869 372.202 C 380.046 367.399,368.445 355.985,359.089 346.839 C 349.734 337.693,337.344 325.553,331.556 319.860 C 325.768 314.168,319.099 307.669,316.735 305.418 C 314.372 303.167,308.755 297.672,304.253 293.206 C 299.751 288.740,288.607 277.774,279.487 268.838 C 270.368 259.901,258.518 248.262,253.155 242.972 C 241.872 231.845,241.843 231.824,240.100 233.236 M309.623 234.673 C 309.482 234.813,309.653 235.243,310.001 235.629 C 310.350 236.014,310.465 236.329,310.257 236.329 C 310.049 236.329,309.879 236.577,309.879 236.881 C 309.879 237.185,310.008 237.400,310.166 237.359 C 310.324 237.318,311.184 237.971,312.077 238.810 C 313.094 239.766,313.533 240.024,313.253 239.501 C 313.008 239.042,312.633 238.558,312.420 238.427 C 312.207 238.296,312.140 238.015,312.271 237.803 C 312.596 237.278,314.384 238.999,314.076 239.539 C 313.944 239.772,313.980 239.830,314.157 239.670 C 314.553 239.309,316.688 241.288,316.402 241.751 C 316.288 241.934,316.423 242.037,316.702 241.979 C 316.981 241.921,317.165 242.089,317.113 242.352 C 317.060 242.615,317.168 242.787,317.353 242.734 C 317.768 242.616,320.080 244.969,319.856 245.281 C 319.767 245.405,319.787 245.443,319.900 245.364 C 320.013 245.286,321.063 246.190,322.233 247.372 C 323.402 248.555,324.229 249.280,324.071 248.985 C 323.878 248.626,323.931 248.540,324.230 248.725 C 324.476 248.877,324.597 249.132,324.498 249.291 C 324.274 249.655,328.554 253.929,329.027 253.813 C 329.217 253.767,329.417 254.030,329.471 254.400 C 329.525 254.769,329.410 254.972,329.214 254.851 C 329.019 254.730,328.975 254.445,329.116 254.217 C 329.277 253.957,329.193 253.913,328.892 254.099 C 328.577 254.293,327.400 253.421,325.487 251.577 C 323.257 249.426,323.088 249.306,324.772 251.073 C 325.987 252.347,326.847 253.523,326.683 253.686 C 326.520 253.850,326.644 253.926,326.960 253.856 C 327.277 253.785,327.487 253.955,327.428 254.235 C 327.371 254.513,327.473 254.649,327.655 254.536 C 327.837 254.424,329.735 256.062,331.871 258.178 C 334.007 260.294,335.755 261.836,335.755 261.605 C 335.755 261.374,335.583 261.185,335.373 261.185 C 335.163 261.185,334.990 261.029,334.990 260.837 C 334.990 260.645,335.231 260.524,335.525 260.567 C 336.224 260.669,337.284 261.556,337.177 261.949 C 337.131 262.118,337.239 262.257,337.416 262.257 C 337.920 262.259,339.955 264.328,339.761 264.642 C 339.666 264.797,339.844 265.136,340.157 265.395 C 340.470 265.655,340.727 265.731,340.727 265.563 C 340.727 265.396,341.151 265.658,341.671 266.146 C 342.190 266.634,342.522 267.184,342.407 267.369 C 342.293 267.554,342.348 267.658,342.529 267.600 C 342.972 267.459,350.298 274.814,350.006 275.106 C 349.880 275.232,349.989 275.335,350.248 275.335 C 350.507 275.335,352.458 277.134,354.584 279.332 C 356.709 281.531,358.595 283.239,358.774 283.128 C 358.954 283.017,359.054 283.146,358.996 283.415 C 358.938 283.684,359.106 283.912,359.369 283.921 C 359.632 283.931,359.804 284.050,359.751 284.185 C 359.699 284.321,359.984 284.794,360.384 285.237 C 361.750 286.746,360.450 286.047,358.504 284.226 C 357.436 283.227,359.012 284.865,362.007 287.866 C 365.001 290.867,367.590 293.299,367.760 293.270 C 368.702 293.109,369.424 293.353,369.180 293.749 C 369.023 294.002,369.073 294.088,369.297 293.950 C 369.793 293.643,371.037 294.983,370.651 295.408 C 370.493 295.582,370.551 295.618,370.781 295.487 C 371.298 295.193,373.739 297.644,373.334 298.049 C 373.172 298.211,373.230 298.286,373.462 298.215 C 373.694 298.145,374.700 298.992,375.697 300.096 C 376.737 301.249,377.698 301.996,377.952 301.851 C 378.195 301.712,378.261 301.744,378.099 301.922 C 377.937 302.100,378.445 302.902,379.229 303.704 C 381.367 305.895,380.259 305.458,377.833 303.155 C 375.900 301.319,375.862 301.300,377.384 302.924 C 378.299 303.901,378.987 304.799,378.912 304.919 C 378.692 305.273,380.105 306.743,380.456 306.526 C 380.633 306.417,381.085 306.668,381.461 307.084 C 382.221 307.923,383.140 308.147,382.459 307.326 C 382.225 307.044,382.161 306.672,382.317 306.500 C 382.473 306.328,382.420 306.289,382.200 306.414 C 381.463 306.832,380.619 306.033,381.197 305.465 C 381.473 305.194,381.644 305.143,381.576 305.354 C 381.508 305.564,381.625 305.790,381.836 305.855 C 382.489 306.058,383.924 307.553,383.745 307.844 C 383.565 308.135,385.049 309.638,385.331 309.451 C 385.526 309.322,386.649 310.397,386.629 310.694 C 386.622 310.806,386.718 310.882,386.843 310.861 C 387.283 310.789,389.263 312.932,389.059 313.261 C 388.946 313.444,389.081 313.547,389.360 313.489 C 389.638 313.432,389.819 313.612,389.761 313.891 C 389.703 314.169,389.798 314.310,389.971 314.203 C 390.420 313.925,394.327 317.968,393.979 318.351 C 393.820 318.526,393.878 318.563,394.108 318.432 C 394.673 318.110,397.139 320.674,396.591 321.013 C 396.291 321.198,396.293 321.492,396.598 322.063 C 396.909 322.644,397.102 322.728,397.319 322.377 C 397.720 321.729,399.376 323.364,399.086 324.121 C 398.971 324.421,399.038 324.665,399.235 324.665 C 399.432 324.665,399.501 324.906,399.388 325.200 C 399.275 325.495,399.367 325.849,399.592 325.988 C 399.835 326.138,400.000 325.893,400.000 325.382 C 400.000 323.238,398.283 321.156,388.994 312.031 C 383.795 306.925,377.187 300.433,374.310 297.606 C 370.923 294.277,368.914 292.567,368.610 292.754 C 368.334 292.925,368.240 292.885,368.381 292.656 C 368.588 292.322,343.521 267.012,328.811 252.702 C 326.149 250.112,320.860 244.938,317.057 241.205 C 313.254 237.471,310.084 234.417,310.011 234.417 C 309.938 234.417,309.764 234.532,309.623 234.673 M311.551 236.858 C 311.508 237.093,311.700 237.238,311.979 237.180 C 312.257 237.122,312.376 237.252,312.242 237.468 C 311.910 238.006,310.416 237.190,310.634 236.590 C 310.725 236.341,310.521 235.793,310.182 235.373 C 309.748 234.835,309.871 234.878,310.598 235.519 C 311.165 236.020,311.594 236.623,311.551 236.858 M337.667 247.992 C 338.381 248.728,338.879 249.331,338.773 249.331 C 338.668 249.331,337.998 248.728,337.285 247.992 C 336.571 247.256,336.074 246.654,336.179 246.654 C 336.284 246.654,336.954 247.256,337.667 247.992 M326.410 250.956 L 327.533 252.199 326.291 251.076 C 325.607 250.458,325.048 249.899,325.048 249.833 C 325.048 249.537,325.363 249.798,326.410 250.956 M196.941 252.510 C 196.941 252.576,197.500 253.135,198.184 253.753 L 199.426 254.876 198.303 253.633 C 197.256 252.474,196.941 252.214,196.941 252.510 M332.863 257.337 C 334.522 259.006,335.587 260.328,335.230 260.276 C 334.382 260.151,329.764 255.571,329.764 254.854 C 329.764 254.148,329.411 253.865,332.863 257.337 M204.589 260.158 C 204.589 260.224,205.148 260.783,205.832 261.401 L 207.075 262.524 205.951 261.281 C 204.904 260.123,204.589 259.862,204.589 260.158 M336.138 262.452 C 336.138 262.518,336.697 263.077,337.380 263.695 L 338.623 264.818 337.500 263.576 C 336.453 262.417,336.138 262.157,336.138 262.452 M225.239 280.426 C 225.239 280.491,225.798 281.051,226.482 281.668 L 227.725 282.792 226.601 281.549 C 225.555 280.390,225.239 280.130,225.239 280.426 M362.710 287.197 C 362.612 287.355,362.789 287.698,363.102 287.958 C 363.415 288.218,363.671 288.302,363.671 288.145 C 363.671 287.989,363.927 288.073,364.241 288.333 C 364.554 288.593,364.699 288.985,364.564 289.204 C 364.427 289.426,364.501 289.489,364.733 289.345 C 365.146 289.090,365.742 289.710,365.786 290.440 C 365.799 290.650,365.994 290.787,366.219 290.743 C 366.769 290.638,368.405 292.408,367.993 292.663 C 367.478 292.981,360.862 286.565,361.178 286.054 C 361.376 285.734,361.654 285.792,362.170 286.259 C 362.565 286.617,362.808 287.039,362.710 287.197 M237.309 292.256 L 238.432 293.499 237.189 292.376 C 236.506 291.758,235.946 291.199,235.946 291.133 C 235.946 290.838,236.262 291.098,237.309 292.256 M243.021 296.750 C 244.057 297.801,244.818 298.662,244.713 298.662 C 244.608 298.662,243.674 297.801,242.639 296.750 C 241.603 295.698,240.841 294.837,240.947 294.837 C 241.052 294.837,241.985 295.698,243.021 296.750 M248.211 302.957 C 247.887 303.258,247.784 303.273,247.939 302.996 C 248.254 302.433,246.320 300.091,245.728 300.318 C 245.486 300.411,245.288 300.158,245.288 299.757 C 245.288 299.185,245.662 299.401,247.011 300.749 C 248.444 302.183,248.646 302.553,248.211 302.957 M189.293 303.268 C 189.711 303.551,189.557 303.587,188.719 303.400 C 187.313 303.085,187.008 302.866,187.986 302.874 C 188.389 302.877,188.977 303.054,189.293 303.268 M213.767 303.250 C 212.293 303.723,211.507 303.723,212.237 303.250 C 212.553 303.047,213.241 302.894,213.767 302.912 L 214.723 302.944 213.767 303.250 M380.459 304.166 C 381.128 304.878,381.207 305.147,380.813 305.375 C 380.534 305.536,380.437 305.524,380.596 305.348 C 380.756 305.172,380.511 304.628,380.052 304.139 C 379.592 303.650,379.303 303.250,379.408 303.250 C 379.513 303.250,379.986 303.663,380.459 304.166 M382.792 308.341 C 382.792 308.407,383.351 308.967,384.034 309.584 L 385.277 310.707 384.154 309.465 C 383.107 308.306,382.792 308.046,382.792 308.341 M264.436 318.164 C 265.257 319.006,265.844 319.694,265.738 319.694 C 265.633 319.694,264.875 319.006,264.054 318.164 C 263.232 317.323,262.646 316.635,262.751 316.635 C 262.856 316.635,263.614 317.323,264.436 318.164 M266.952 320.746 C 267.383 321.315,267.378 321.344,266.922 320.937 C 266.249 320.336,265.639 320.312,266.002 320.900 C 266.173 321.176,266.107 321.238,265.827 321.065 C 265.364 320.779,265.581 320.076,266.133 320.076 C 266.305 320.076,266.673 320.378,266.952 320.746 M399.416 353.537 C 399.416 367.419,399.463 373.042,399.522 366.033 C 399.580 359.025,399.580 347.667,399.522 340.794 C 399.463 333.922,399.416 339.656,399.416 353.537 M280.688 334.112 C 280.688 334.184,280.258 333.961,279.732 333.617 C 279.207 333.272,278.776 332.839,278.776 332.655 C 278.776 332.470,279.207 332.693,279.732 333.150 C 280.258 333.607,280.688 334.040,280.688 334.112 M277.617 349.332 C 278.030 349.892,277.903 349.849,277.139 349.169 C 276.567 348.659,276.099 348.087,276.099 347.898 C 276.099 347.528,276.721 348.115,277.617 349.332 M296.014 349.426 L 296.941 350.478 295.793 349.522 C 295.163 348.996,294.575 348.523,294.487 348.470 C 294.399 348.418,294.498 348.375,294.707 348.375 C 294.916 348.375,295.504 348.848,296.014 349.426 M279.350 350.669 C 279.731 351.090,279.849 351.434,279.614 351.434 C 279.378 351.434,279.001 351.090,278.776 350.669 C 278.551 350.249,278.432 349.904,278.512 349.904 C 278.592 349.904,278.969 350.249,279.350 350.669 M315.870 369.255 C 316.753 370.239,316.701 370.225,315.201 369.067 C 314.307 368.378,313.576 367.736,313.576 367.641 C 313.576 367.268,314.964 368.245,315.870 369.255 M232.122 377.438 C 232.122 377.648,231.563 377.803,230.880 377.782 C 229.702 377.746,229.687 377.728,230.593 377.438 C 231.942 377.006,232.122 377.006,232.122 377.438 M196.367 379.491 C 196.998 379.556,195.234 379.637,192.447 379.671 C 189.661 379.705,187.380 379.603,187.380 379.446 C 187.380 379.182,193.695 379.214,196.367 379.491 M208.509 379.632 C 207.404 379.709,205.598 379.709,204.493 379.632 C 203.389 379.555,204.293 379.491,206.501 379.491 C 208.709 379.491,209.613 379.555,208.509 379.632 M199.522 380.378 C 199.154 380.475,198.552 380.475,198.184 380.378 C 197.815 380.282,198.117 380.203,198.853 380.203 C 199.589 380.203,199.890 380.282,199.522 380.378 " stroke="none" fill="#80a728" fill-rule="evenodd"></path><path id="path1" d="M167.183 152.218 C 164.718 152.714,163.092 153.894,162.169 155.859 C 161.246 157.821,160.810 214.960,161.700 217.262 C 162.266 218.726,164.437 221.073,164.952 220.779 C 165.194 220.641,165.256 220.676,165.091 220.858 C 164.775 221.205,180.403 237.094,181.060 237.094 C 181.269 237.094,179.636 235.246,177.431 232.987 C 175.226 230.728,182.384 237.783,193.337 248.666 C 204.291 259.548,213.403 268.451,213.587 268.451 C 213.771 268.451,213.250 267.763,212.428 266.922 C 211.607 266.080,211.107 265.392,211.318 265.392 C 211.529 265.392,211.901 265.591,212.144 265.835 C 212.672 266.363,213.767 265.635,213.767 264.756 C 213.767 264.457,214.093 263.862,214.493 263.433 C 216.171 261.632,216.219 260.825,216.296 233.162 C 216.354 212.616,216.476 206.732,216.853 206.277 C 218.078 204.801,218.328 204.785,243.595 204.567 L 268.260 204.354 270.683 203.390 C 272.015 202.859,273.236 202.214,273.395 201.957 C 273.554 201.700,273.903 201.541,274.172 201.605 C 274.440 201.669,274.711 201.410,274.775 201.030 C 274.863 200.506,274.772 200.438,274.399 200.748 C 274.037 201.048,273.766 200.978,273.378 200.483 C 272.898 199.871,272.911 199.857,273.518 200.334 C 275.741 202.077,273.384 199.362,268.260 194.276 C 265.000 191.041,262.333 188.298,262.333 188.183 C 262.333 188.067,263.709 189.341,265.392 191.013 C 267.075 192.686,268.451 193.909,268.451 193.731 C 268.451 193.552,266.085 191.155,263.193 188.404 C 260.301 185.652,252.639 178.145,246.166 171.720 C 239.692 165.295,234.186 159.971,233.928 159.888 C 233.671 159.805,234.665 160.880,236.138 162.277 C 237.610 163.674,238.655 164.817,238.461 164.818 C 238.266 164.818,235.857 162.607,233.107 159.904 C 230.357 157.202,227.419 154.628,226.577 154.185 C 225.736 153.742,225.220 153.373,225.430 153.364 C 225.944 153.344,228.282 154.765,229.350 155.747 C 229.823 156.183,230.210 156.380,230.210 156.185 C 230.209 155.806,227.426 153.861,225.239 152.711 C 223.761 151.934,170.828 151.485,167.183 152.218 M194.455 152.569 C 164.613 152.793,165.762 152.697,163.402 155.143 C 162.441 156.138,162.410 156.146,162.968 155.258 C 164.803 152.335,165.385 152.283,195.602 152.328 L 221.606 152.366 194.455 152.569 M224.474 152.959 C 224.865 153.208,224.560 153.250,223.518 153.090 C 221.628 152.800,221.306 152.579,222.785 152.587 C 223.399 152.590,224.159 152.758,224.474 152.959 M231.732 158.118 C 232.657 159.060,233.499 159.745,233.603 159.641 C 233.854 159.390,230.932 156.405,230.436 156.405 C 230.224 156.405,230.808 157.176,231.732 158.118 M250.826 176.780 C 257.150 183.043,262.025 188.002,261.659 187.799 C 261.294 187.596,258.597 185.019,255.666 182.072 C 252.736 179.125,250.171 176.818,249.967 176.944 C 249.762 177.070,249.703 177.000,249.834 176.787 C 249.965 176.575,247.468 173.857,244.284 170.747 C 241.100 167.638,238.682 165.161,238.911 165.243 C 239.140 165.325,244.502 170.517,250.826 176.780 M270.823 196.282 C 272.147 197.602,273.662 199.015,274.187 199.422 C 274.713 199.829,273.771 198.749,272.093 197.022 C 270.415 195.295,268.901 193.881,268.728 193.881 C 268.555 193.881,269.498 194.962,270.823 196.282 M181.262 237.220 C 181.262 237.392,188.081 244.361,196.416 252.706 C 204.751 261.050,211.043 267.189,210.399 266.348 C 208.965 264.476,181.262 236.781,181.262 237.220 M215.296 270.172 C 216.010 270.908,216.680 271.511,216.785 271.511 C 216.890 271.511,216.392 270.908,215.679 270.172 C 214.965 269.436,214.295 268.834,214.190 268.834 C 214.085 268.834,214.583 269.436,215.296 270.172 " stroke="none" fill="#f08828" fill-rule="evenodd"></path><path id="path2" d="M313.664 183.174 C 313.664 183.910,313.743 184.211,313.839 183.843 C 313.935 183.475,313.935 182.873,313.839 182.505 C 313.743 182.137,313.664 182.438,313.664 183.174 M310.223 217.591 C 310.223 218.327,310.301 218.628,310.397 218.260 C 310.494 217.892,310.494 217.290,310.397 216.922 C 310.301 216.554,310.223 216.855,310.223 217.591 M297.132 224.015 C 297.132 224.184,297.305 224.526,297.518 224.777 C 297.730 225.028,297.805 225.166,297.684 225.084 C 297.564 225.002,296.790 225.597,295.964 226.406 C 293.436 228.884,294.145 228.823,266.376 228.951 C 238.655 229.078,240.344 228.928,239.254 231.358 C 238.957 232.020,238.764 240.385,238.628 258.579 L 238.432 284.845 237.285 286.070 L 236.138 287.295 237.182 286.629 C 238.953 285.501,239.013 284.644,239.005 260.523 C 238.994 226.482,237.876 227.903,252.964 242.780 C 258.432 248.171,270.368 259.896,279.487 268.835 C 288.607 277.773,299.751 288.740,304.253 293.206 C 308.755 297.672,314.372 303.167,316.735 305.418 C 319.099 307.669,325.768 314.168,331.556 319.860 C 337.344 325.553,349.734 337.693,359.089 346.839 C 368.445 355.985,380.046 367.399,384.869 372.202 C 390.875 378.183,393.923 380.958,394.540 381.005 C 395.036 381.043,395.604 381.332,395.803 381.646 C 396.164 382.218,396.383 381.742,396.212 380.756 C 396.182 380.582,396.292 380.524,396.457 380.626 C 396.929 380.917,398.194 379.830,397.912 379.375 C 397.774 379.151,397.853 378.967,398.089 378.967 C 398.325 378.967,398.465 379.353,398.399 379.824 C 398.246 380.919,399.327 381.009,399.675 379.929 C 400.282 378.049,400.022 327.940,399.395 325.786 C 398.761 323.612,397.390 321.231,396.769 321.226 C 396.569 321.225,396.612 321.430,396.864 321.683 C 397.117 321.935,397.318 322.322,397.311 322.543 C 397.304 322.764,397.058 322.627,396.764 322.238 C 396.469 321.850,396.307 321.328,396.402 321.078 C 396.498 320.829,391.481 315.640,385.253 309.547 C 379.025 303.455,372.745 297.294,371.298 295.857 C 369.852 294.420,368.405 293.205,368.084 293.158 C 367.244 293.035,365.201 291.454,365.201 290.927 C 365.201 290.682,365.803 291.065,366.539 291.778 C 367.275 292.492,367.878 292.951,367.878 292.799 C 367.878 292.647,365.856 290.537,363.384 288.110 C 360.913 285.683,352.338 277.212,344.328 269.286 C 331.674 256.764,324.252 249.467,302.419 228.082 C 298.347 224.094,297.132 223.159,297.132 224.015 M315.679 226.769 C 317.352 228.451,318.806 229.828,318.911 229.828 C 319.016 229.828,317.734 228.451,316.061 226.769 C 314.388 225.086,312.934 223.709,312.829 223.709 C 312.723 223.709,314.006 225.086,315.679 226.769 M310.029 236.196 C 313.532 239.653,315.039 241.592,312.015 238.751 C 311.156 237.945,310.283 237.332,310.074 237.390 C 309.865 237.448,309.789 237.342,309.905 237.154 C 310.021 236.967,309.751 236.489,309.304 236.093 C 308.501 235.380,308.497 235.381,308.931 236.208 C 309.535 237.361,309.479 237.661,308.769 237.072 C 308.439 236.798,308.249 236.267,308.347 235.892 C 308.546 235.132,307.753 234.265,307.265 234.707 C 307.093 234.863,307.064 234.795,307.200 234.556 C 307.527 233.983,306.474 233.076,306.130 233.633 C 305.994 233.854,306.064 234.034,306.287 234.034 C 306.510 234.034,306.692 234.228,306.692 234.464 C 306.692 234.755,306.503 234.736,306.102 234.403 C 305.696 234.066,305.635 233.791,305.908 233.518 C 306.181 233.245,306.038 232.819,305.447 232.147 L 304.589 231.172 305.535 231.934 C 306.056 232.353,308.078 234.271,310.029 236.196 M337.285 247.992 C 337.998 248.728,338.668 249.331,338.773 249.331 C 338.879 249.331,338.381 248.728,337.667 247.992 C 336.954 247.256,336.284 246.654,336.179 246.654 C 336.074 246.654,336.571 247.256,337.285 247.992 M334.512 260.181 C 337.064 262.987,335.625 261.895,331.871 258.178 C 329.735 256.062,327.837 254.424,327.655 254.536 C 327.473 254.649,327.371 254.513,327.428 254.235 C 327.487 253.955,327.277 253.785,326.960 253.856 C 326.644 253.926,326.520 253.850,326.683 253.686 C 326.847 253.523,325.986 252.358,324.771 251.097 C 323.556 249.836,324.971 251.057,327.916 253.809 C 330.860 256.562,333.829 259.429,334.512 260.181 M337.500 263.576 L 338.623 264.818 337.380 263.695 C 336.697 263.077,336.138 262.518,336.138 262.452 C 336.138 262.157,336.453 262.417,337.500 263.576 M216.826 271.349 C 216.826 271.808,219.470 274.348,219.704 274.114 C 219.796 274.022,219.186 273.277,218.349 272.460 C 217.511 271.642,216.826 271.142,216.826 271.349 M362.813 288.300 C 364.129 289.582,365.073 290.631,364.910 290.631 C 364.747 290.631,362.724 288.696,360.414 286.332 C 356.437 282.261,357.564 283.186,362.813 288.300 M234.182 287.889 C 234.206 288.288,235.602 289.875,237.285 291.415 L 240.344 294.215 237.997 291.754 C 236.523 290.209,235.694 289.030,235.769 288.588 C 235.835 288.201,235.787 287.986,235.662 288.111 C 235.537 288.236,235.143 288.074,234.786 287.751 C 234.198 287.219,234.142 287.231,234.182 287.889 M242.639 296.750 C 243.674 297.801,244.608 298.662,244.713 298.662 C 244.818 298.662,244.057 297.801,243.021 296.750 C 241.985 295.698,241.052 294.837,240.947 294.837 C 240.841 294.837,241.603 295.698,242.639 296.750 M245.124 299.074 C 245.124 299.178,245.899 300.083,246.845 301.085 C 247.792 302.087,248.566 302.762,248.566 302.585 C 248.566 302.407,247.792 301.502,246.845 300.574 C 245.899 299.645,245.124 298.970,245.124 299.074 M381.549 306.488 C 382.233 307.091,382.707 307.669,382.603 307.773 C 382.499 307.877,382.060 307.642,381.628 307.251 C 381.196 306.860,380.563 306.499,380.221 306.449 C 379.647 306.365,378.676 305.147,378.936 304.836 C 378.998 304.761,378.299 303.906,377.383 302.934 C 375.936 301.401,376.019 301.446,378.011 303.280 C 379.273 304.442,380.865 305.885,381.549 306.488 M187.412 303.005 C 187.500 303.081,188.088 303.258,188.719 303.400 C 189.557 303.587,189.711 303.551,189.293 303.268 C 188.776 302.919,187.029 302.675,187.412 303.005 M212.237 303.250 C 211.507 303.723,212.293 303.723,213.767 303.250 L 214.723 302.944 213.767 302.912 C 213.241 302.894,212.553 303.047,212.237 303.250 M384.154 309.465 L 385.277 310.707 384.034 309.584 C 383.351 308.967,382.792 308.407,382.792 308.341 C 382.792 308.046,383.107 308.306,384.154 309.465 M264.054 318.164 C 264.875 319.006,265.633 319.694,265.738 319.694 C 265.844 319.694,265.257 319.006,264.436 318.164 C 263.614 317.323,262.856 316.635,262.751 316.635 C 262.646 316.635,263.232 317.323,264.054 318.164 M399.522 366.033 C 399.463 373.042,399.416 367.419,399.416 353.537 C 399.416 339.656,399.463 333.922,399.522 340.794 C 399.580 347.667,399.580 359.025,399.522 366.033 M278.776 332.655 C 278.776 332.839,279.207 333.272,279.732 333.617 C 280.258 333.961,280.688 334.184,280.688 334.112 C 280.688 334.040,280.258 333.607,279.732 333.150 C 279.207 332.693,278.776 332.470,278.776 332.655 M276.099 347.898 C 276.099 348.087,276.567 348.659,277.139 349.169 C 277.903 349.849,278.030 349.892,277.617 349.332 C 276.721 348.115,276.099 347.528,276.099 347.898 M294.487 348.470 C 294.575 348.523,295.163 348.996,295.793 349.522 L 296.941 350.478 296.014 349.426 C 295.504 348.848,294.916 348.375,294.707 348.375 C 294.498 348.375,294.399 348.418,294.487 348.470 M278.776 350.669 C 279.001 351.090,279.378 351.434,279.614 351.434 C 279.849 351.434,279.731 351.090,279.350 350.669 C 278.969 350.249,278.592 349.904,278.512 349.904 C 278.432 349.904,278.551 350.249,278.776 350.669 M313.576 367.641 C 313.576 367.736,314.307 368.378,315.201 369.067 C 316.701 370.225,316.753 370.239,315.870 369.255 C 314.964 368.245,313.576 367.268,313.576 367.641 M230.593 377.438 C 229.687 377.728,229.702 377.746,230.880 377.782 C 231.563 377.803,232.122 377.648,232.122 377.438 C 232.122 377.006,231.942 377.006,230.593 377.438 M187.380 379.446 C 187.380 379.603,189.661 379.705,192.447 379.671 C 197.965 379.604,197.480 379.433,191.300 379.265 C 189.144 379.207,187.380 379.288,187.380 379.446 M204.493 379.632 C 205.598 379.709,207.404 379.709,208.509 379.632 C 209.613 379.555,208.709 379.491,206.501 379.491 C 204.293 379.491,203.389 379.555,204.493 379.632 " stroke="none" fill="#80ad54" fill-rule="evenodd"></path><path id="path3" d="M250.287 0.404 C 252.224 0.805,253.789 0.787,252.199 0.382 C 251.568 0.222,250.535 0.090,249.904 0.089 C 248.940 0.088,249.001 0.138,250.287 0.404 M256.405 1.732 C 257.247 2.009,258.279 2.231,258.700 2.225 C 259.120 2.219,258.776 1.987,257.935 1.710 C 257.094 1.433,256.061 1.211,255.641 1.217 C 255.220 1.223,255.564 1.454,256.405 1.732 M139.962 2.124 C 134.174 3.484,118.895 8.559,114.340 10.634 C 112.321 11.554,112.563 11.748,114.639 10.874 C 121.266 8.083,135.066 3.589,135.736 4.003 C 135.921 4.118,136.130 4.049,136.201 3.852 C 136.271 3.654,137.964 3.066,139.962 2.546 C 143.705 1.571,143.705 1.244,139.962 2.124 M260.421 2.677 C 261.728 3.096,262.734 3.096,261.759 2.677 C 261.338 2.496,260.650 2.353,260.229 2.359 C 259.615 2.368,259.652 2.431,260.421 2.677 M264.436 3.773 C 264.857 3.957,265.803 4.216,266.539 4.350 C 267.458 4.517,267.638 4.488,267.113 4.258 C 266.692 4.074,265.746 3.814,265.010 3.681 C 264.091 3.514,263.911 3.543,264.436 3.773 M270.363 5.559 C 271.730 6.070,273.021 6.479,273.231 6.468 C 273.810 6.436,269.111 4.628,268.451 4.629 C 268.136 4.629,268.996 5.047,270.363 5.559 M275.143 7.079 C 275.985 7.396,278.608 8.360,280.973 9.222 C 283.580 10.172,285.175 10.947,285.024 11.190 C 284.888 11.410,284.957 11.479,285.177 11.343 C 285.398 11.207,286.312 11.354,287.208 11.670 C 289.569 12.503,289.481 12.109,287.101 11.189 C 285.993 10.761,283.087 9.636,280.644 8.689 C 278.201 7.742,275.620 6.862,274.908 6.735 C 273.672 6.514,273.682 6.529,275.143 7.079 M109.170 12.782 C 105.675 14.498,106.159 14.530,109.796 12.824 C 111.349 12.096,112.444 11.494,112.229 11.486 C 112.015 11.478,110.638 12.062,109.170 12.782 M291.013 13.193 C 291.960 13.700,292.906 14.115,293.117 14.115 C 293.327 14.115,292.725 13.700,291.778 13.193 C 290.832 12.686,289.885 12.272,289.675 12.272 C 289.465 12.272,290.067 12.686,291.013 13.193 M293.882 14.533 C 294.012 14.742,294.291 14.914,294.503 14.914 C 295.364 14.914,307.488 21.245,311.185 23.626 C 311.659 23.930,312.046 24.092,312.046 23.984 C 312.046 23.577,306.299 20.241,301.139 17.652 C 295.190 14.667,293.522 13.950,293.882 14.533 M98.904 17.567 C 95.567 19.227,92.642 20.786,92.403 21.031 C 92.057 21.386,104.930 15.131,105.513 14.660 C 106.313 14.015,103.984 15.039,98.904 17.567 M89.003 22.912 C 87.474 23.892,87.192 24.289,88.528 23.581 C 90.130 22.731,90.890 22.188,90.440 22.214 C 90.229 22.226,89.583 22.540,89.003 22.912 M85.182 25.247 C 83.252 26.459,82.621 27.252,84.442 26.176 C 85.717 25.423,87.462 24.109,87.189 24.108 C 87.084 24.107,86.181 24.620,85.182 25.247 M312.428 24.263 C 312.428 24.369,312.945 24.722,313.576 25.048 C 314.207 25.374,314.723 25.555,314.723 25.450 C 314.723 25.345,314.207 24.992,313.576 24.665 C 312.945 24.339,312.428 24.158,312.428 24.263 M315.105 25.743 C 315.105 25.844,316.482 26.801,318.164 27.870 C 321.369 29.904,322.400 30.275,319.598 28.386 C 317.180 26.755,315.105 25.535,315.105 25.743 M79.460 28.909 C 77.717 30.087,76.033 31.312,75.717 31.631 C 75.402 31.950,76.864 31.052,78.967 29.635 C 83.169 26.803,83.216 26.769,82.870 26.769 C 82.738 26.769,81.204 27.732,79.460 28.909 M321.797 30.098 C 322.373 30.716,330.784 36.721,330.784 36.514 C 330.784 36.307,324.265 31.460,322.562 30.401 C 321.931 30.009,321.587 29.872,321.797 30.098 M72.360 33.811 C 71.098 34.740,69.943 35.699,69.792 35.942 C 69.547 36.339,70.235 35.862,74.029 33.004 C 74.642 32.542,75.033 32.155,74.899 32.144 C 74.764 32.132,73.622 32.882,72.360 33.811 M331.166 36.838 C 331.166 36.943,331.855 37.575,332.696 38.241 C 333.537 38.907,334.226 39.366,334.226 39.261 C 334.226 39.156,333.537 38.525,332.696 37.859 C 331.855 37.192,331.166 36.733,331.166 36.838 M65.573 39.226 L 63.671 40.976 65.679 39.358 C 67.480 37.905,67.914 37.476,67.580 37.476 C 67.522 37.476,66.619 38.264,65.573 39.226 M334.608 39.479 C 334.608 39.569,336.372 41.145,338.528 42.983 C 340.684 44.821,341.578 45.495,340.514 44.482 C 338.279 42.350,334.608 39.241,334.608 39.479 M59.273 44.404 C 55.098 48.001,48.948 53.852,48.948 54.227 C 48.948 54.346,50.540 52.900,52.486 51.014 C 54.431 49.128,57.701 46.146,59.751 44.387 C 63.026 41.579,63.764 40.877,63.384 40.931 C 63.332 40.939,61.482 42.501,59.273 44.404 M343.403 47.088 C 346.612 50.317,357.440 60.653,356.023 59.135 C 353.529 56.462,346.176 49.302,344.168 47.592 C 343.222 46.786,342.878 46.559,343.403 47.088 M44.000 59.004 C 42.393 60.888,42.380 60.923,43.745 59.656 C 44.955 58.533,46.194 56.935,45.807 56.996 C 45.747 57.006,44.934 57.909,44.000 59.004 M40.274 63.002 C 38.147 65.613,37.744 66.157,37.934 66.157 C 38.027 66.157,39.000 65.038,40.096 63.671 C 41.191 62.304,42.012 61.185,41.921 61.185 C 41.829 61.185,41.088 62.003,40.274 63.002 M358.680 62.503 C 359.185 63.040,359.655 63.480,359.726 63.480 C 360.070 63.480,358.832 61.936,358.335 61.745 C 358.020 61.624,358.175 61.965,358.680 62.503 M365.611 70.746 C 368.456 74.181,368.473 74.199,367.951 73.231 C 367.723 72.811,366.570 71.434,365.386 70.172 L 363.235 67.878 365.611 70.746 M32.144 73.050 C 31.089 74.318,30.041 75.738,29.815 76.205 C 29.556 76.739,29.731 76.629,30.285 75.908 C 30.770 75.277,31.900 73.858,32.796 72.753 C 33.692 71.649,34.344 70.746,34.244 70.746 C 34.144 70.746,33.199 71.783,32.144 73.050 M197.992 71.398 C 198.466 71.489,199.240 71.489,199.713 71.398 C 200.186 71.307,199.799 71.232,198.853 71.232 C 197.906 71.232,197.519 71.307,197.992 71.398 M202.772 71.392 C 203.141 71.488,203.743 71.488,204.111 71.392 C 204.479 71.296,204.178 71.217,203.442 71.217 C 202.706 71.217,202.404 71.296,202.772 71.392 M192.261 72.163 C 192.736 72.255,193.425 72.251,193.790 72.156 C 194.156 72.060,193.767 71.985,192.925 71.989 C 192.084 71.994,191.785 72.072,192.261 72.163 M208.509 72.157 C 208.877 72.253,209.479 72.253,209.847 72.157 C 210.215 72.060,209.914 71.982,209.178 71.982 C 208.442 71.982,208.141 72.060,208.509 72.157 M188.815 72.545 C 189.288 72.636,190.062 72.636,190.535 72.545 C 191.009 72.454,190.621 72.379,189.675 72.379 C 188.728 72.379,188.341 72.454,188.815 72.545 M211.377 72.545 C 211.850 72.636,212.624 72.636,213.098 72.545 C 213.571 72.454,213.184 72.379,212.237 72.379 C 211.291 72.379,210.903 72.454,211.377 72.545 M183.850 72.935 C 184.537 73.020,185.570 73.018,186.145 72.931 C 186.719 72.844,186.157 72.774,184.895 72.776 C 183.633 72.778,183.163 72.850,183.850 72.935 M215.972 72.935 C 216.660 73.020,217.692 73.018,218.267 72.931 C 218.842 72.844,218.279 72.774,217.017 72.776 C 215.755 72.778,215.285 72.850,215.972 72.935 M369.406 75.621 C 369.906 76.305,370.376 76.864,370.449 76.864 C 370.739 76.864,369.791 75.430,369.164 74.921 C 368.751 74.585,368.843 74.852,369.406 75.621 M170.268 75.598 C 170.636 75.694,171.238 75.694,171.606 75.598 C 171.974 75.502,171.673 75.423,170.937 75.423 C 170.201 75.423,169.900 75.502,170.268 75.598 M166.539 76.698 C 165.488 77.205,164.825 77.621,165.067 77.624 C 165.309 77.627,166.428 77.201,167.553 76.677 C 168.678 76.153,169.340 75.736,169.025 75.751 C 168.709 75.765,167.591 76.192,166.539 76.698 M234.195 76.689 C 235.440 77.206,236.645 77.622,236.872 77.613 C 237.099 77.604,236.266 77.174,235.021 76.657 C 233.776 76.140,232.571 75.724,232.344 75.733 C 232.117 75.742,232.950 76.172,234.195 76.689 M158.891 79.386 C 157.839 79.897,157.409 80.205,157.935 80.071 C 159.027 79.792,161.765 78.420,161.185 78.443 C 160.975 78.451,159.943 78.875,158.891 79.386 M154.111 81.453 C 153.375 81.856,152.945 82.186,153.155 82.186 C 153.365 82.186,154.140 81.856,154.876 81.453 C 155.612 81.050,156.042 80.720,155.832 80.720 C 155.621 80.720,154.847 81.050,154.111 81.453 M246.654 81.279 C 247.827 81.971,250.103 82.988,250.429 82.968 C 250.561 82.959,249.663 82.443,248.434 81.820 C 246.102 80.639,245.001 80.305,246.654 81.279 M253.155 84.302 C 253.155 84.407,253.671 84.760,254.302 85.086 C 254.933 85.412,255.449 85.593,255.449 85.488 C 255.449 85.383,254.933 85.030,254.302 84.704 C 253.671 84.377,253.155 84.196,253.155 84.302 M137.763 90.083 C 136.869 90.618,136.138 91.147,136.138 91.257 C 136.138 91.464,138.718 89.999,139.369 89.423 C 140.026 88.841,139.414 89.093,137.763 90.083 M134.417 92.385 L 133.270 93.371 134.512 92.549 C 135.196 92.096,135.755 91.652,135.755 91.561 C 135.755 91.275,135.593 91.374,134.417 92.385 M267.686 93.065 C 267.686 93.170,268.203 93.623,268.834 94.073 C 269.465 94.522,269.981 94.804,269.981 94.698 C 269.981 94.593,269.465 94.140,268.834 93.690 C 268.203 93.241,267.686 92.959,267.686 93.065 M128.149 96.772 C 127.645 97.191,127.315 97.615,127.414 97.714 C 127.513 97.813,127.998 97.464,128.491 96.939 C 129.564 95.797,129.410 95.722,128.149 96.772 M273.040 97.187 C 276.646 100.803,283.596 107.269,281.262 104.836 C 279.790 103.301,277.036 100.650,275.143 98.945 C 273.250 97.240,272.304 96.448,273.040 97.187 M121.989 102.294 C 120.422 103.872,119.226 105.163,119.331 105.163 C 119.436 105.163,120.804 103.872,122.371 102.294 C 123.938 100.717,125.134 99.426,125.029 99.426 C 124.923 99.426,123.555 100.717,121.989 102.294 M116.812 107.553 L 114.914 109.560 116.922 107.663 C 118.026 106.619,118.929 105.715,118.929 105.655 C 118.929 105.370,118.575 105.687,116.812 107.553 M387.408 106.119 C 387.408 106.329,387.654 106.931,387.954 107.457 C 388.255 107.983,388.501 108.241,388.501 108.031 C 388.501 107.820,388.255 107.218,387.954 106.692 C 387.654 106.166,387.408 105.908,387.408 106.119 M284.130 108.341 C 284.130 108.407,284.689 108.967,285.373 109.584 L 286.616 110.707 285.493 109.465 C 284.446 108.306,284.130 108.046,284.130 108.341 M391.614 116.061 C 391.614 116.272,391.860 116.874,392.161 117.400 C 392.461 117.925,392.707 118.184,392.707 117.973 C 392.707 117.763,392.461 117.161,392.161 116.635 C 391.860 116.109,391.614 115.851,391.614 116.061 M106.692 120.459 C 106.243 121.090,105.961 121.606,106.066 121.606 C 106.172 121.606,106.625 121.090,107.075 120.459 C 107.524 119.828,107.805 119.312,107.700 119.312 C 107.595 119.312,107.141 119.828,106.692 120.459 M302.486 137.049 C 302.486 137.459,303.623 139.579,303.844 139.579 C 303.949 139.579,303.751 139.020,303.403 138.337 C 302.693 136.941,302.486 136.650,302.486 137.049 M182.314 152.485 C 189.517 152.544,201.305 152.544,208.509 152.485 C 215.712 152.427,209.818 152.380,195.411 152.380 C 181.004 152.380,175.110 152.427,182.314 152.485 M166.157 152.982 C 165.624 153.223,165.856 153.257,166.922 153.095 C 167.763 152.967,168.523 152.799,168.611 152.722 C 168.939 152.432,166.891 152.649,166.157 152.982 M222.212 152.718 C 222.299 152.792,222.973 152.964,223.709 153.099 C 224.651 153.272,224.878 153.234,224.474 152.969 C 223.956 152.629,221.832 152.393,222.212 152.718 M164.142 153.939 C 163.676 154.266,163.110 154.911,162.884 155.373 L 162.473 156.214 163.167 155.365 C 163.550 154.898,164.207 154.258,164.627 153.943 C 165.641 153.184,165.225 153.180,164.142 153.939 M226.960 154.465 C 228.011 155.077,230.331 157.054,232.114 158.859 C 233.897 160.665,235.494 162.141,235.663 162.141 C 235.831 162.141,234.312 160.550,232.287 158.604 C 228.827 155.279,226.305 153.348,225.430 153.352 C 225.220 153.353,225.908 153.854,226.960 154.465 M309.458 157.553 C 309.458 158.289,309.536 158.590,309.633 158.222 C 309.729 157.854,309.729 157.251,309.633 156.883 C 309.536 156.515,309.458 156.816,309.458 157.553 M161.174 185.851 C 161.174 199.417,161.222 204.967,161.281 198.184 C 161.339 191.401,161.339 180.301,161.281 173.518 C 161.222 166.735,161.174 172.285,161.174 185.851 M236.329 162.877 C 236.329 163.075,236.845 163.604,237.476 164.054 C 238.107 164.503,238.623 164.801,238.623 164.716 C 238.623 164.632,238.107 164.102,237.476 163.540 C 236.845 162.978,236.329 162.680,236.329 162.877 M248.754 175.062 C 254.221 180.575,258.795 185.086,258.918 185.086 C 259.121 185.086,239.694 165.629,239.078 165.215 C 238.933 165.118,243.287 169.549,248.754 175.062 M88.058 167.113 C 88.058 168.059,88.133 168.446,88.224 167.973 C 88.315 167.500,88.315 166.726,88.224 166.252 C 88.133 165.779,88.058 166.166,88.058 167.113 M311.773 168.069 C 311.776 169.120,311.850 169.505,311.938 168.924 C 312.026 168.343,312.023 167.482,311.933 167.012 C 311.842 166.542,311.770 167.017,311.773 168.069 M312.155 174.570 C 312.158 175.621,312.232 176.006,312.320 175.425 C 312.408 174.844,312.406 173.983,312.315 173.513 C 312.224 173.043,312.152 173.518,312.155 174.570 M312.543 180.497 C 312.543 181.654,312.615 182.127,312.702 181.549 C 312.790 180.970,312.790 180.024,312.702 179.446 C 312.615 178.867,312.543 179.340,312.543 180.497 M265.514 191.555 C 268.915 194.905,271.749 197.594,271.812 197.531 C 271.959 197.385,261.126 186.723,260.101 186.005 C 259.677 185.708,262.112 188.205,265.514 191.555 M312.554 192.543 C 312.555 194.015,312.625 194.571,312.707 193.777 C 312.790 192.984,312.789 191.779,312.704 191.100 C 312.620 190.422,312.552 191.071,312.554 192.543 M312.142 199.044 C 312.147 199.885,312.225 200.184,312.316 199.709 C 312.408 199.233,312.404 198.545,312.309 198.179 C 312.213 197.813,312.138 198.203,312.142 199.044 M273.518 199.385 C 273.886 199.665,274.187 200.110,274.187 200.376 C 274.187 200.748,274.035 200.739,273.518 200.334 C 272.911 199.857,272.898 199.871,273.378 200.483 C 273.744 200.950,274.047 201.040,274.364 200.777 C 274.689 200.507,275.149 200.757,275.939 201.631 C 276.928 202.724,276.940 202.764,276.044 201.977 C 275.385 201.398,274.943 201.235,274.775 201.507 C 274.633 201.737,274.338 201.814,274.118 201.678 C 273.899 201.543,273.581 201.655,273.413 201.928 C 273.244 202.201,272.015 202.859,270.683 203.390 L 268.260 204.354 243.595 204.567 C 218.328 204.785,218.078 204.801,216.853 206.277 C 216.476 206.732,216.354 212.616,216.296 233.162 C 216.219 260.825,216.171 261.632,214.493 263.433 C 214.093 263.862,213.767 264.457,213.767 264.756 C 213.767 265.635,212.672 266.363,212.144 265.835 C 210.884 264.574,211.154 265.627,212.446 267.012 C 213.985 268.661,213.355 268.234,210.351 265.591 L 209.038 264.436 210.218 265.966 C 212.147 268.467,229.835 285.855,230.397 285.803 C 230.682 285.776,230.836 285.960,230.740 286.211 C 230.578 286.632,234.784 290.631,235.389 290.631 C 235.536 290.631,235.004 289.814,234.206 288.815 C 233.409 287.815,232.992 287.213,233.281 287.476 C 233.569 287.739,233.953 287.954,234.133 287.954 C 234.314 287.954,234.336 287.739,234.182 287.476 C 234.029 287.213,234.234 287.284,234.638 287.634 C 235.338 288.239,235.446 288.185,236.902 286.503 L 238.432 284.737 238.628 258.525 C 238.764 240.371,238.957 232.020,239.254 231.358 C 240.344 228.928,238.655 229.078,266.376 228.951 C 294.145 228.823,293.436 228.884,295.964 226.406 C 296.790 225.597,297.522 224.960,297.592 224.991 C 297.661 225.022,297.586 224.884,297.425 224.685 C 296.366 223.372,298.355 223.673,299.522 225.002 L 300.234 225.813 299.777 224.857 C 299.526 224.331,297.236 221.850,294.689 219.344 C 292.141 216.838,286.413 211.202,281.959 206.820 C 277.505 202.438,273.633 198.858,273.355 198.865 C 273.013 198.873,273.065 199.041,273.518 199.385 M311.773 205.927 C 311.776 206.979,311.850 207.364,311.938 206.783 C 312.026 206.201,312.023 205.341,311.933 204.870 C 311.842 204.400,311.770 204.876,311.773 205.927 M88.051 206.692 C 88.055 207.533,88.133 207.833,88.225 207.357 C 88.316 206.881,88.313 206.193,88.217 205.827 C 88.121 205.462,88.046 205.851,88.051 206.692 M309.478 217.400 C 309.481 218.451,309.556 218.836,309.643 218.255 C 309.731 217.673,309.729 216.813,309.638 216.343 C 309.547 215.872,309.476 216.348,309.478 217.400 M185.277 240.918 C 190.532 246.176,194.918 250.478,195.023 250.478 C 195.128 250.478,190.915 246.176,185.660 240.918 C 180.405 235.660,176.019 231.358,175.914 231.358 C 175.809 231.358,180.022 235.660,185.277 240.918 M309.369 234.536 C 309.369 234.602,309.928 235.162,310.612 235.779 L 311.855 236.902 310.732 235.660 C 309.685 234.501,309.369 234.241,309.369 234.536 M315.105 240.344 C 316.884 242.132,318.425 243.595,318.530 243.595 C 318.635 243.595,317.266 242.132,315.488 240.344 C 313.709 238.556,312.168 237.094,312.063 237.094 C 311.958 237.094,313.327 238.556,315.105 240.344 M325.048 249.833 C 325.048 249.899,325.607 250.458,326.291 251.076 L 327.533 252.199 326.410 250.956 C 325.363 249.798,325.048 249.537,325.048 249.833 M335.946 260.803 C 340.570 265.430,344.439 269.216,344.544 269.216 C 344.649 269.216,340.952 265.430,336.329 260.803 C 331.705 256.176,327.836 252.390,327.731 252.390 C 327.626 252.390,331.323 256.176,335.946 260.803 M219.721 273.848 C 220.384 274.922,218.964 273.812,216.635 271.437 L 213.958 268.707 216.734 271.108 C 218.261 272.428,219.605 273.661,219.721 273.848 M226.601 281.549 L 227.725 282.792 226.482 281.668 C 225.798 281.051,225.239 280.491,225.239 280.426 C 225.239 280.130,225.555 280.390,226.601 281.549 M363.671 288.074 C 363.671 288.140,364.230 288.699,364.914 289.317 L 366.157 290.440 365.034 289.197 C 363.987 288.038,363.671 287.778,363.671 288.074 M366.348 290.751 C 366.348 290.816,366.907 291.376,367.591 291.993 L 368.834 293.117 367.710 291.874 C 366.664 290.715,366.348 290.455,366.348 290.751 M235.946 291.133 C 235.946 291.199,236.506 291.758,237.189 292.376 L 238.432 293.499 237.309 292.256 C 236.262 291.098,235.946 290.838,235.946 291.133 M369.025 293.413 C 369.025 293.471,370.359 294.805,371.989 296.377 L 374.952 299.235 372.094 296.272 C 369.439 293.519,369.025 293.133,369.025 293.413 M379.350 303.370 C 379.350 303.436,379.909 303.995,380.593 304.613 L 381.836 305.736 380.712 304.493 C 379.665 303.335,379.350 303.075,379.350 303.370 M383.748 307.839 C 384.783 308.891,385.717 309.751,385.822 309.751 C 385.927 309.751,385.166 308.891,384.130 307.839 C 383.094 306.788,382.161 305.927,382.056 305.927 C 381.950 305.927,382.712 306.788,383.748 307.839 M386.233 310.239 C 386.233 310.297,387.567 311.631,389.197 313.203 L 392.161 316.061 389.302 313.098 C 386.647 310.345,386.233 309.959,386.233 310.239 M394.455 318.547 C 395.704 319.809,396.812 320.841,396.917 320.841 C 397.022 320.841,396.086 319.809,394.837 318.547 C 393.589 317.285,392.481 316.252,392.376 316.252 C 392.271 316.252,393.206 317.285,394.455 318.547 M198.184 380.378 C 198.552 380.475,199.154 380.475,199.522 380.378 C 199.890 380.282,199.589 380.203,198.853 380.203 C 198.117 380.203,197.815 380.282,198.184 380.378 " stroke="none" fill="#f0e65b" fill-rule="evenodd"></path></g></svg>